<svg width="20" height="20" viewBox="0 0 20 20" fill="none" xmlns="http://www.w3.org/2000/svg">
<g clip-path="url(#clip0_121_874)">
<path fill-rule="evenodd" clip-rule="evenodd" d="M18.1997 6.08213C16.9028 5.32628 15.4292 5.72779 14.4216 6.19766L11.4178 7.59834L6.25172 5L3.17516 5.13218L7.44114 9.45698L4.72242 10.7485L1.89385 9.67196L0 10.555L1.71151 12.6803C1.53069 12.8961 1.36683 13.1998 1.51559 13.5188C1.70988 13.9354 2.28414 14.1454 3.22609 14.1454C3.41926 14.1454 3.62791 14.1365 3.85186 14.1188C4.88585 14.0372 6.00688 13.7732 6.70785 13.4464L10.9079 11.4878L10.3357 10.898L6.3797 12.7427C5.78251 13.0212 4.80204 13.2546 3.88187 13.3372C2.94135 13.4216 2.43848 13.3156 2.27086 13.2256C2.30537 13.1783 2.36981 13.1041 2.48871 12.9994L2.76759 12.754L1.22615 10.8399L1.92436 10.5143L4.75596 11.592L8.76093 9.68951L4.95662 5.83272L6.0832 5.78431L11.4049 8.46087L14.7496 6.90126C15.9711 6.33166 17.0003 6.28182 17.8087 6.75285L17.8087 6.75289C18.0124 6.87156 18.0836 6.97509 18.0817 7.0157C18.0817 7.01849 18.0583 7.29691 17.117 7.7358L12.3308 9.96767L13.2397 10.4005L17.4451 8.43948C18.3725 8.00699 18.8345 7.55288 18.8574 7.0511C18.8693 6.79086 18.7648 6.4114 18.1997 6.08213ZM17.0712 10.6114C17.7364 10.3029 18.7092 10.0393 19.5653 10.5355C19.9384 10.7517 20.0074 11.0008 19.9995 11.1716C19.9844 11.5011 19.6794 11.7992 19.0672 12.0831L11.9789 15.37C11.5162 15.5846 10.7761 15.7578 10.0935 15.8114C9.94567 15.8231 9.80793 15.8289 9.68041 15.8289C9.05857 15.8289 8.67948 15.691 8.55121 15.4175C8.45301 15.2081 8.56118 15.0087 8.68055 14.8671L7.55069 13.4719L8.80092 12.8922L10.6682 13.5989L12.463 12.751L9.64679 9.91192L11.6778 9.82515L15.0882 11.5309L17.0712 10.6114ZM11.7623 14.9081L18.8506 11.6211C19.472 11.333 19.4874 11.1502 19.4875 11.1484C19.4887 11.1217 19.4417 11.0538 19.3072 10.9759L19.3072 10.9759C18.7735 10.6666 18.0941 10.6994 17.2877 11.0733L15.0797 12.0971L11.5665 10.34L10.8228 10.3718L13.3343 12.9037L10.6904 14.1526L8.82106 13.4451L8.36014 13.6589L9.37773 14.9155L9.19363 15.0766C9.11513 15.1453 9.07259 15.194 9.04981 15.225C9.16047 15.2841 9.49244 15.3537 10.1133 15.2983C10.7208 15.2441 11.368 15.0909 11.7623 14.9081Z" fill="#80848D"/>
</g>
<defs>
<clipPath id="clip0_121_874">
<rect width="20" height="20" fill="white"/>
</clipPath>
</defs>
</svg>
