<svg width="20" height="20" viewBox="0 0 20 20" fill="none" xmlns="http://www.w3.org/2000/svg">
<path d="M18.1997 6.08213C16.9028 5.32628 15.4292 5.72779 14.4216 6.19766L11.4178 7.59834L6.25172 5L3.17516 5.13218L7.44114 9.45698L4.72242 10.7485L1.89385 9.67196L0 10.555L1.71151 12.6803C1.53069 12.8961 1.36683 13.1998 1.51559 13.5188C1.70988 13.9354 2.28414 14.1454 3.22609 14.1454C3.41926 14.1454 3.62791 14.1365 3.85186 14.1188C4.88585 14.0372 6.00688 13.7732 6.70785 13.4464L17.4451 8.43948C18.3725 8.00699 18.8345 7.55288 18.8574 7.0511C18.8693 6.79086 18.7648 6.4114 18.1997 6.08213ZM17.117 7.7358L6.3797 12.7427C5.78251 13.0212 4.80204 13.2546 3.88187 13.3372C2.94135 13.4216 2.43848 13.3156 2.27086 13.2256C2.30537 13.1783 2.36981 13.1041 2.48871 12.9994L2.76759 12.754L1.22615 10.8399L1.92436 10.5143L4.75596 11.592L8.76093 9.68951L4.95662 5.83272L6.0832 5.78431L11.4049 8.46087L14.7496 6.90126C15.9711 6.33166 17.0003 6.28182 17.8087 6.75285L17.8087 6.75289C18.0124 6.87156 18.0836 6.97509 18.0817 7.0157C18.0817 7.01849 18.0583 7.29691 17.117 7.7358Z" fill="#80848D"/>
</svg>
