<svg width="17" height="19" viewBox="0 0 17 19" fill="none" xmlns="http://www.w3.org/2000/svg">
<path d="M13.9685 12.7847L11.8361 12.187C10.0538 11.0872 10.6196 11.4373 10.5064 11.3666V10.1855C11.242 9.40749 11.9068 8.23697 11.9811 5.86764C12.1862 5.69436 12.3205 5.43621 12.3205 5.13916C12.3205 4.83857 12.3205 4.55213 12.218 4.09948L12.6742 3.20125C12.9606 2.63544 12.7131 1.94232 12.1331 1.68417L8.51899 0.0928284C8.23609 -0.0309428 7.90721 -0.0309428 7.6243 0.0928284L4.00311 1.68771C3.42316 1.94232 3.17561 2.63544 3.46206 3.20125L3.91824 4.10301C3.82276 4.55566 3.82276 4.83857 3.82276 5.1533C3.82276 5.41499 3.92178 5.6696 4.15871 5.86764C4.22944 8.20514 4.90841 9.40042 5.63336 10.1749V11.3631C5.52019 11.4338 6.08601 11.0837 4.30724 12.187L2.17484 12.7847C0.894689 13.1454 0 14.3265 0 15.6597V17.6224C0 17.831 0.169743 18.0007 0.378386 18.0007C0.587029 18.0007 0.7497 17.831 0.7497 17.6224V15.6597C0.7497 14.666 1.41806 13.7819 2.37641 13.5132L4.28602 12.9756L5.27619 14.5705C5.57678 15.055 6.21331 15.2389 6.73669 14.9312L6.97716 15.1717L6.70133 17.686C6.68011 17.8947 6.82863 18.0785 7.03374 18.1033C7.23885 18.1245 7.42627 17.976 7.45103 17.7709L7.67381 15.741C7.79758 15.7906 7.92843 15.8153 8.06634 15.8153C8.20426 15.8153 8.3351 15.787 8.45888 15.741L8.68166 17.7709C8.70642 18.0043 8.94335 18.1422 9.09895 18.1033C9.30759 18.0821 9.45612 17.8947 9.43136 17.686L9.15553 15.1717L9.396 14.9312C9.91584 15.2353 10.5559 15.0585 10.8565 14.5705L11.8467 12.9756L13.7598 13.5096C14.7182 13.7784 15.3865 14.6625 15.3865 15.6562V17.6188C15.3865 17.8275 15.5563 17.9972 15.7649 17.9972C15.9736 17.9972 16.1433 17.8275 16.1433 17.6188V15.6562C16.1433 14.33 15.2486 13.1489 13.9685 12.7847ZM8.06988 13.0464L6.38659 11.4197V10.8715C6.3972 10.8821 6.63414 11.0802 6.63767 11.0837C6.93826 11.3383 7.31664 11.4762 7.70918 11.4762H8.43766C8.83019 11.4762 9.21211 11.3348 9.5127 11.0802C9.73195 10.8963 9.73902 10.8857 9.76024 10.8751V11.4197L8.06988 13.0464ZM11.5673 5.15684C11.5673 5.25585 11.486 5.34073 11.3834 5.34073C11.4117 5.34073 11.0581 5.33719 4.75635 5.34073C4.65733 5.34073 4.57246 5.25939 4.57246 5.15684C4.57246 4.89161 4.57246 4.71126 4.61843 4.43189H11.5178C11.5673 4.70773 11.5673 4.9093 11.5673 5.15684ZM10.1103 6.09396L9.78146 6.41223C9.53745 6.64916 9.21565 6.77647 8.8797 6.77647H7.26714C6.92765 6.77647 6.60584 6.64563 6.36184 6.40869L6.0365 6.09396H10.1103ZM4.95085 6.09396L5.83493 6.94975C6.22039 7.3246 6.72608 7.52971 7.2636 7.52971H8.87616C9.41015 7.52971 9.91938 7.3246 10.3048 6.95329L11.1925 6.09396H11.2172C11.0758 8.86997 10.0644 9.62675 9.01761 10.5073C8.85494 10.6452 8.6463 10.723 8.43412 10.723H7.70564C7.49346 10.723 7.28482 10.6452 7.12215 10.5073C6.26282 9.74344 5.06047 9.06447 4.91548 6.09396H4.95085ZM4.30724 2.37729L7.92843 0.782411C8.02037 0.743511 8.12293 0.743511 8.21487 0.782411L11.8325 2.37729C12.0199 2.45863 12.0977 2.68141 12.0058 2.86177L11.5921 3.67512H4.54417L4.13396 2.86177C4.04201 2.68141 4.12335 2.45863 4.30724 2.37729ZM5.9198 14.1709L4.97914 12.6574C6.32294 11.8299 5.85968 12.1128 5.9587 12.0527L7.47578 13.5202L6.38306 14.2699C6.22746 14.376 6.01882 14.33 5.9198 14.1709ZM7.83648 14.9631L7.37676 14.5033L8.06988 14.0295L8.763 14.5033L8.30328 14.9631C8.17951 15.0868 7.96025 15.0868 7.83648 14.9631ZM10.22 14.1709C10.1209 14.3265 9.9123 14.376 9.75671 14.2699L8.66398 13.5202L10.1811 12.0527C10.2801 12.1128 9.82036 11.8299 11.1571 12.6574L10.22 14.1709Z" fill="#80848D"/>
</svg>
