<svg width="14" height="20" viewBox="0 0 14 20" fill="none" xmlns="http://www.w3.org/2000/svg">
<path d="M9.46507 6.77521C10.143 6.72744 10.642 6.17784 10.642 5.52885C10.6421 5.23048 10.5348 4.94203 10.3398 4.71626V3.63092C10.3398 1.62881 8.71096 0 6.70884 0C4.70673 0 3.07792 1.62881 3.07792 3.63092V4.74462C2.88224 4.96643 2.77583 5.23934 2.77583 5.52881C2.77583 6.17701 3.27371 6.72724 3.95235 6.77514C4.05001 7.52057 4.44695 8.18581 5.05066 8.62431V9.38869C5.05068 9.39275 5.04946 9.39671 5.04717 9.40005C5.04488 9.40339 5.04163 9.40596 5.03784 9.40741L3.25481 10.0986L2.20088 8.99617C1.91406 8.69615 1.44001 8.68658 1.14108 8.97234L0.381156 9.69879C0.0816845 9.98506 0.0709807 10.4591 0.357365 10.7586L0.824503 11.2472C0.442019 11.6046 0 12.2189 0 13.1489V19.2522C0 19.6646 0.33545 20 0.74778 20H6.05673C6.21858 20 6.34972 19.8689 6.34972 19.707C6.34972 19.5452 6.21858 19.414 6.05673 19.414H2.90869V13.6836C2.90869 13.5218 2.77755 13.3906 2.6157 13.3906C2.45386 13.3906 2.32272 13.5218 2.32272 13.6836V19.414H0.74778C0.704882 19.4139 0.663755 19.3969 0.633422 19.3665C0.603089 19.3362 0.586025 19.2951 0.585973 19.2522V13.1489C0.585973 12.4442 0.90193 11.9711 1.22882 11.6702L3.5933 14.1435C3.65046 14.417 3.78249 14.67 3.98036 14.8769L7.17606 18.2197C7.37486 18.4277 7.62136 18.5711 7.89208 18.6402L8.63185 19.414H7.42397C7.26212 19.414 7.13098 19.5452 7.13098 19.707C7.13098 19.8689 7.26212 20 7.42397 20H12.733C13.1453 20 13.4807 19.6646 13.4807 19.2522V16.4689C13.4807 16.3071 13.3496 16.1759 13.1878 16.1759C13.0259 16.1759 12.8948 16.3071 12.8948 16.4689V19.2522C12.8947 19.2951 12.8777 19.3362 12.8473 19.3666C12.817 19.3969 12.7759 19.414 12.733 19.414H12.1602L11.1581 18.3658V13.6836C11.1581 13.5218 11.0269 13.3906 10.8651 13.3906C10.7032 13.3906 10.5721 13.5218 10.5721 13.6836V17.7528L9.76301 16.9065C9.71242 16.6214 9.57765 16.3515 9.36393 16.128L6.16826 12.7852C5.96048 12.5679 5.69894 12.4205 5.41228 12.3555L3.69311 10.5572L4.03692 10.4239C5.16238 12.6185 8.31609 12.621 9.44327 10.4247L11.7134 11.3038C11.7658 11.3263 12.8947 11.8295 12.8947 13.1488V15.1016C12.8947 15.2635 13.0258 15.3946 13.1877 15.3946C13.3495 15.3946 13.4807 15.2635 13.4807 15.1016V13.1488C13.4807 11.4167 11.9975 10.787 11.9344 10.7611C11.9325 10.7603 11.9306 10.7595 11.9287 10.7588L8.43895 9.40729C8.43516 9.40585 8.43189 9.40329 8.4296 9.39994C8.4273 9.3966 8.42608 9.39263 8.4261 9.38858V8.58083C8.9825 8.14827 9.36826 7.5069 9.46507 6.77521ZM9.69613 17.6845L11.3495 19.414H9.44249L8.69193 18.6289C9.19282 18.4828 9.54495 18.1071 9.69613 17.6845ZM5.74476 13.1901L8.94046 16.5329C9.54761 17.1681 9.00641 18.2486 8.09295 18.0844C7.90567 18.0486 7.73461 17.956 7.5996 17.8148L4.4039 14.472C4.27366 14.3357 4.18498 14.162 4.15666 13.9638C4.02841 13.0706 5.12531 12.5423 5.74476 13.1901ZM4.62844 12.3836C4.41339 12.4497 4.20225 12.5715 4.02845 12.7371H4.02849C3.85871 12.8994 3.7205 13.1082 3.64053 13.345L0.780868 10.3537C0.766011 10.3382 0.75436 10.3199 0.746581 10.2999C0.738801 10.2798 0.735045 10.2584 0.735528 10.237C0.736011 10.2155 0.740722 10.1943 0.749393 10.1746C0.758064 10.155 0.770525 10.1372 0.786063 10.1224L1.54599 9.39588C1.57739 9.36595 1.61938 9.34969 1.66275 9.35067C1.70611 9.35166 1.74732 9.3698 1.77733 9.40112C3.42419 11.1238 4.6127 12.3671 4.62844 12.3836ZM10.056 5.52881C10.056 5.84965 9.82653 6.12787 9.48968 6.18272V4.87502C9.82536 4.92956 10.056 5.20758 10.056 5.52881ZM3.92821 6.18276C3.58764 6.12752 3.3618 5.84594 3.3618 5.52885C3.3618 5.21606 3.62092 4.96085 3.92821 4.88987V6.18276ZM3.94391 4.2928C3.85062 4.30354 3.74261 4.32913 3.66389 4.35589V3.63092C3.66389 1.95195 5.02987 0.585973 6.70884 0.585973C8.38781 0.585973 9.75379 1.95195 9.75379 3.63092V4.33577C9.66774 4.30968 9.57922 4.29257 9.48964 4.28471C9.48964 4.00259 9.49265 4.05696 8.56732 3.06233L8.5672 3.06222C8.56622 3.06116 8.56513 3.06026 8.56411 3.05921C8.48047 2.97045 8.36824 2.91399 8.24712 2.89971C8.12599 2.88544 8.00371 2.91428 7.90173 2.98116C6.89546 3.6385 5.65108 3.98399 4.48707 3.90039C4.23612 3.88094 4.00575 4.04732 3.94391 4.2928ZM8.89284 10.2115C7.96579 11.9106 5.51362 11.9101 4.58727 10.2105L5.24965 9.95377C5.48111 9.864 5.63659 9.63691 5.63659 9.38869V8.94863C5.96489 9.08078 6.34538 9.15864 6.74435 9.15864C7.11711 9.15864 7.49791 9.08004 7.84016 8.93023V9.38858C7.84016 9.63691 7.99576 9.86403 8.22737 9.95377L8.89284 10.2115ZM6.74439 8.57267C5.40392 8.57267 4.51414 7.53272 4.51414 6.41344V4.48933C5.78457 4.56364 7.10844 4.18533 8.17577 3.50177C8.59361 3.95047 8.82936 4.19572 8.90366 4.2869V6.41347C8.9037 7.58991 7.94552 8.57267 6.74439 8.57267Z" fill="#80848D"/>
</svg>
