<svg width="16" height="20" viewBox="0 0 16 20" fill="none" xmlns="http://www.w3.org/2000/svg">
<path d="M6.93457 7.05859V10.0165L9.65063 11.1908" stroke="#80848D" stroke-width="0.7" stroke-miterlimit="10" stroke-linecap="round" stroke-linejoin="round"/>
<path d="M6.93364 13.0123C8.58621 13.0123 9.92588 11.6712 9.92588 10.0169C9.92588 8.36256 8.58621 7.02148 6.93364 7.02148C5.28108 7.02148 3.94141 8.36256 3.94141 10.0169C3.94141 11.6712 5.28108 13.0123 6.93364 13.0123Z" stroke="#80848D" stroke-width="0.7" stroke-miterlimit="10" stroke-linecap="round" stroke-linejoin="round"/>
<path d="M13.04 17.3581H14.0895C14.6456 17.3581 15.0964 16.9068 15.0964 16.3502V2.00794C15.0964 1.45128 14.6456 1 14.0895 1H4.0401C3.484 1 3.0332 1.45128 3.0332 2.00794V3.00356" stroke="#80848D" stroke-width="0.7" stroke-miterlimit="10" stroke-linecap="round" stroke-linejoin="round"/>
<path d="M9.6748 5.3601C9.6748 5.91642 10.126 6.36745 10.6826 6.36745H12.9657L9.6748 3.07812V5.3601Z" stroke="#80848D" stroke-width="0.7" stroke-miterlimit="10" stroke-linecap="round" stroke-linejoin="round"/>
<path d="M4.59131 16.5513V16.9037M6.15307 15.8167V16.9037M7.71478 15.0822V16.9037M9.27653 14.3477V16.9037M9.67457 3.07812H1.91017C1.35355 3.07812 0.902344 3.52911 0.902344 4.08547V18.4289C0.902344 18.9852 1.35355 19.4362 1.91017 19.4362H11.9576C12.5143 19.4362 12.9655 18.9852 12.9655 18.4289V6.36745L9.67457 3.07812Z" stroke="#80848D" stroke-width="0.7" stroke-miterlimit="10" stroke-linecap="round" stroke-linejoin="round"/>
</svg>
