<svg width="16" height="17" viewBox="0 0 16 17" fill="none" xmlns="http://www.w3.org/2000/svg">
<path d="M15.1997 15.4847V5.61822C15.1997 5.5475 15.1716 5.47967 15.1216 5.42967C15.0716 5.37966 15.0038 5.35156 14.933 5.35156H12.2664C12.1957 5.35156 12.1279 5.37966 12.0779 5.42967C12.0279 5.47967 11.9998 5.5475 11.9998 5.61822V15.4847H11.4664V9.35148C11.4664 9.28076 11.4383 9.21293 11.3883 9.16293C11.3383 9.11292 11.2705 9.08482 11.1998 9.08482H8.53317C8.46244 9.08482 8.39462 9.11292 8.34461 9.16293C8.2946 9.21293 8.2665 9.28076 8.2665 9.35148V15.4847H7.73318V6.68487C7.73318 6.61415 7.70509 6.54632 7.65508 6.49631C7.60507 6.4463 7.53724 6.41821 7.46652 6.41821H4.79991C4.72918 6.41821 4.66136 6.4463 4.61135 6.49631C4.56134 6.54632 4.53324 6.61415 4.53324 6.68487V15.4847H3.99992V10.4181C3.99992 10.3474 3.97183 10.2796 3.92182 10.2296C3.87181 10.1796 3.80398 10.1515 3.73326 10.1515H1.06665C0.995923 10.1515 0.928096 10.1796 0.878088 10.2296C0.828079 10.2796 0.799984 10.3474 0.799984 10.4181V15.4847H0V16.018H15.9997V15.4847H15.1997ZM3.4666 15.4847H1.33331V10.6848H3.4666V15.4847ZM7.19986 15.4847H5.06657V6.95153H7.19986V15.4847ZM10.9331 15.4847H8.79983V9.61815H10.9331V15.4847ZM14.6664 15.4847H12.5331V5.88489H14.6664V15.4847Z" fill="#80848D"/>
<path d="M1.6646 7.26362C1.88273 7.40783 2.13846 7.48471 2.39995 7.48468C3.1363 7.48465 3.73322 6.8877 3.73319 6.15131C3.73318 5.8899 3.65633 5.63427 3.51219 5.41619L5.39962 3.5285C5.61595 3.67326 5.87025 3.75082 6.13054 3.75142C6.20904 3.75146 6.28738 3.74459 6.36467 3.73089C6.61836 3.68642 6.85356 3.56891 7.04146 3.39277L8.62356 4.60901C8.3595 5.29639 8.70266 6.06771 9.39005 6.33177C10.0774 6.59584 10.8488 6.25268 11.1128 5.56529C11.1891 5.36661 11.2168 5.15255 11.1935 4.941C11.1701 4.72945 11.0965 4.52655 10.9787 4.34928L12.8656 2.46238C13.4815 2.87004 14.3112 2.70121 14.7189 2.08532C15.1265 1.46944 14.9577 0.639686 14.3418 0.232061C13.7259 -0.175598 12.8962 -0.00676758 12.4886 0.60912C12.3437 0.828019 12.2664 1.08472 12.2664 1.34722C12.2664 1.60973 12.3437 1.86643 12.4886 2.08532L10.6017 3.97222C10.0732 3.62289 9.37185 3.69366 8.92382 4.14155C8.91875 4.14662 8.91582 4.15248 8.91102 4.15728L7.35185 2.95891C7.65135 2.28619 7.34879 1.49807 6.67607 1.19858C6.00335 0.899081 5.21523 1.20164 4.91573 1.87436C4.82459 2.0791 4.78652 2.30352 4.80505 2.52687C4.82359 2.75021 4.89812 2.96528 5.02176 3.1522L3.13514 5.0391C2.52085 4.63301 1.6937 4.8018 1.2876 5.41609C0.881546 6.03038 1.05031 6.85753 1.6646 7.26362ZM13.5997 0.551488C14.0416 0.551488 14.3997 0.909648 14.3997 1.35147C14.3997 1.7933 14.0416 2.15146 13.5997 2.15146C13.1579 2.15146 12.7997 1.7933 12.7997 1.35147C12.7997 0.909648 13.1579 0.551488 13.5997 0.551488ZM9.30051 4.51924C9.37482 4.44489 9.46304 4.38591 9.56015 4.34567C9.65726 4.30544 9.76135 4.28473 9.86647 4.28475C10.3083 4.28468 10.6665 4.64281 10.6666 5.08463C10.6666 5.18975 10.6459 5.29384 10.6056 5.39095C10.5654 5.48806 10.5064 5.57628 10.4321 5.65059C10.1154 5.95241 9.61754 5.95241 9.30088 5.65059C8.98835 5.33826 8.98822 4.83174 9.30051 4.51924ZM5.47796 1.95929L5.47802 1.95919C5.53805 1.87295 5.61459 1.79946 5.7032 1.74298C5.79182 1.68649 5.89075 1.64814 5.99428 1.63013C6.0407 1.62217 6.08771 1.61816 6.13481 1.61813C6.2985 1.61831 6.45817 1.66886 6.59213 1.76293C6.95403 2.01639 7.04196 2.51522 6.7885 2.87711C6.53503 3.239 6.03621 3.3269 5.67432 3.07347C5.31243 2.82001 5.22449 2.32119 5.47796 1.95929ZM1.83399 5.58589L1.83436 5.58552C2.14689 5.27316 2.65344 5.27326 2.96581 5.58579C3.27817 5.89832 3.27807 6.40487 2.96554 6.71723C2.64888 7.01906 2.15102 7.01906 1.83436 6.71723C1.52183 6.40491 1.5217 5.89838 1.83399 5.58589Z" fill="#80848D"/>
</svg>
