<svg width="20" height="20" viewBox="0 0 20 20" fill="none" xmlns="http://www.w3.org/2000/svg">
<path d="M7.91807 8.59882L7.91818 8.59886L10.4136 9.50749L11.7362 8.18494C11.765 8.15405 12.306 7.58867 13.1025 7.58867L13.1123 7.58867L13.1124 7.58867V7.63867L7.91807 8.59882ZM7.91807 8.59882C7.74089 8.53478 7.54916 8.52241 7.36522 8.56314C7.18128 8.60387 7.0127 8.69603 6.87912 8.82888L6.87902 8.82898M7.91807 8.59882L6.87902 8.82898M6.87902 8.82898L6.34384 9.36417L6.87902 8.82898ZM7.06395 11.7791L7.0639 11.7793L7.85961 12.1464C8.15628 11.8211 8.41773 11.5186 8.58686 11.3205L6.38248 9.79257L6.38243 9.79254L7.06395 11.7791ZM7.06395 11.7791L7.06061 11.7779M7.06395 11.7791L7.06061 11.7779M7.06061 11.7779C6.94749 11.7352 6.82446 11.7259 6.70623 11.7513C6.58801 11.7767 6.4796 11.8356 6.394 11.921L6.39397 11.9211M7.06061 11.7779L6.39397 11.9211M6.39397 11.9211L5.73893 12.5756L5.73888 12.5757M6.39397 11.9211L5.73888 12.5757M5.73888 12.5757C5.71065 12.604 5.6888 12.638 5.67479 12.6755C5.66079 12.7129 5.65496 12.7529 5.65769 12.7928C5.66042 12.8327 5.67165 12.8715 5.69063 12.9067C5.7096 12.9418 5.73589 12.9726 5.76772 12.9967L5.76776 12.9968M5.73888 12.5757L5.76776 12.9968M5.76776 12.9968L7.34053 14.1893L8.53306 15.7621C8.55722 15.7939 8.58793 15.8203 8.62311 15.8393C8.65831 15.8583 8.69716 15.8695 8.73706 15.8723C8.77696 15.875 8.81698 15.8692 8.85443 15.8551C8.89188 15.8411 8.92589 15.8192 8.95417 15.7909L8.95418 15.7909M5.76776 12.9968L8.95418 15.7909M8.95418 15.7909L9.60875 15.1361M8.95418 15.7909L9.60875 15.1361M9.60875 15.1361C9.60875 15.1361 9.60876 15.1361 9.60876 15.1361C9.78374 14.9611 9.83916 14.6993 9.74569 14.4543L9.7458 14.4543L9.74436 14.4512L9.38346 13.6703M9.60875 15.1361L9.38346 13.6703M9.38346 13.6703C9.65479 13.4235 9.93005 13.1811 10.2091 12.9432L11.7373 15.1479L11.7374 15.1479C11.7608 15.1816 11.7913 15.2097 11.8267 15.2303C11.8622 15.2509 11.9017 15.2634 11.9425 15.2671C11.9834 15.2707 12.0245 15.2654 12.063 15.2514C12.1016 15.2375 12.1366 15.2152 12.1656 15.1863L12.1656 15.1862L12.7009 14.651L12.7009 14.651C12.8338 14.5174 12.926 14.3488 12.9668 14.1649C13.0075 13.9809 12.9951 13.7892 12.931 13.612L12.931 13.6119L12.0221 11.1164L13.3384 9.79994C13.3745 9.76653 13.9458 9.22053 13.9412 8.41711M9.38346 13.6703L13.9412 8.41711M13.9412 8.41711C13.9412 8.41717 13.9412 8.41723 13.9412 8.41729L13.8912 8.41722L13.9412 8.41693C13.9412 8.41699 13.9412 8.41705 13.9412 8.41711ZM11.5004 10.8467L12.9498 9.39731L12.9771 9.37005C13.0164 9.32836 13.0942 9.23952 13.1712 9.11497L11.5004 10.8467ZM11.5004 10.8467C11.5004 10.8468 11.5004 10.8468 11.5004 10.8468C11.4627 10.8844 11.4365 10.9321 11.425 10.9841C11.4134 11.0361 11.417 11.0904 11.4352 11.1405L11.4352 11.1405L12.4051 13.8034L12.4051 13.8034C12.4621 13.9599 12.4228 14.1373 12.3051 14.2551M11.5004 10.8467L12.3051 14.2551M12.3051 14.2551L12.0071 14.5532L10.4933 12.3696L10.4933 12.3695L10.4929 12.369C10.4698 12.3365 10.44 12.3093 10.4055 12.2892C10.371 12.2691 10.3327 12.2566 10.293 12.2524L10.2878 12.3021M12.3051 14.2551L10.6835 10.0299C10.6459 10.0676 10.5983 10.0937 10.5463 10.1053C10.4942 10.1168 10.44 10.1132 10.39 10.0949L7.72701 9.12527C7.72699 9.12526 7.72698 9.12525 7.72697 9.12525C7.6499 9.09744 7.56651 9.09209 7.48652 9.10982C7.40653 9.12756 7.33323 9.16764 7.27514 9.22542C7.27512 9.22543 7.27511 9.22545 7.27509 9.22546L6.97712 9.52344L9.16029 11.0372L9.16036 11.0373C9.19392 11.0606 9.22197 11.091 9.24254 11.1264C9.2631 11.1617 9.2757 11.2011 9.27943 11.2419C9.28316 11.2826 9.27795 11.3236 9.26415 11.3621C9.25057 11.4 9.22902 11.4345 9.20095 11.4632L9.13526 11.5407C8.82911 11.9031 8.51581 12.2594 8.19556 12.6094C8.10349 12.7103 7.96564 12.7582 7.82666 12.7361M10.2878 12.3021C10.2549 12.2985 10.2217 12.3019 10.1903 12.3121C10.1589 12.3224 10.13 12.3392 10.1056 12.3615C10.0972 12.3693 10.074 12.389 10.0383 12.4191C10.033 12.4236 10.0275 12.4283 10.0217 12.4332L10.0179 12.4364C9.83366 12.593 9.40927 12.9536 8.95516 13.3714L8.92147 13.3344C8.92143 13.3345 8.9214 13.3345 8.92136 13.3345C8.81987 13.4272 8.77291 13.5654 8.79418 13.7032M10.2878 12.3021C10.3204 12.3056 10.352 12.3159 10.3803 12.3324C10.4087 12.3489 10.4332 12.3713 10.4522 12.398M10.2878 12.3021L10.4522 12.398M8.79418 13.7032C8.79417 13.7032 8.79416 13.7031 8.79416 13.7031L8.84361 13.6957L8.7942 13.7033C8.79419 13.7033 8.79418 13.7032 8.79418 13.7032ZM8.79418 13.7032C8.79807 13.7292 8.80561 13.7544 8.8166 13.7783L8.81664 13.7783L9.22905 14.6693C9.23319 14.6811 9.23398 14.694 9.23131 14.7063C9.22853 14.7191 9.22211 14.7309 9.21282 14.7402L9.2128 14.7402L8.78554 15.1679L7.76406 13.8205C7.76405 13.8205 7.76405 13.8205 7.76405 13.8205C7.74859 13.8001 7.73041 13.7819 7.71002 13.7665L6.36262 12.7447L6.79012 12.3172C6.79967 12.3077 6.81238 12.3008 6.82505 12.2973C6.83127 12.2955 6.8368 12.2948 6.84116 12.2948C6.84331 12.2948 6.84498 12.2949 6.84618 12.2951C6.84652 12.2951 6.8468 12.2952 6.84703 12.2952L7.75175 12.7137L7.75188 12.7137C7.77567 12.7246 7.80102 12.7322 7.82666 12.7361M7.82666 12.7361C7.82661 12.7361 7.82656 12.7361 7.82652 12.7361L7.83438 12.6867L7.82685 12.7361C7.82679 12.7361 7.82673 12.7361 7.82666 12.7361ZM10.4522 12.398L11.9712 14.5891L10.4522 12.398ZM13.1099 8.1489C13.2616 8.14995 13.3806 8.26921 13.3816 8.42076L10.6836 10.0299L12.1392 8.57424L12.1393 8.5743L12.1411 8.57223L12.1412 8.5721C12.1453 8.5678 12.2446 8.46368 12.412 8.35973C12.5833 8.25326 12.8229 8.1489 13.1027 8.1489H13.1099Z" fill="#80848D" stroke="#80848D" stroke-width="0.1"/>
<path d="M18.7695 18.4895H14.3506V16.9982H15.9688C16.0431 16.9982 16.1143 16.9687 16.1668 16.9161C16.2193 16.8636 16.2488 16.7924 16.2488 16.7182V6.53749C16.2488 6.46323 16.2193 6.39201 16.1668 6.3395C16.1143 6.28699 16.0431 6.25749 15.9688 6.25749H14.3506V4.828H15.9688C16.0431 4.828 16.1143 4.7985 16.1668 4.74599C16.2193 4.69348 16.2488 4.62226 16.2488 4.548V0.829608C16.2488 0.755348 16.2193 0.684129 16.1668 0.631619C16.1143 0.579109 16.0431 0.549609 15.9688 0.549609H3.6303C3.55604 0.549609 3.48482 0.579109 3.43231 0.631619C3.3798 0.684129 3.3503 0.755348 3.3503 0.829608V4.548C3.3503 4.62226 3.3798 4.69348 3.43231 4.74599C3.48482 4.7985 3.55604 4.828 3.6303 4.828H5.24848V6.25749H3.6303C3.55604 6.25749 3.48482 6.28699 3.43231 6.3395C3.3798 6.39201 3.3503 6.46323 3.3503 6.53749V16.7179C3.3503 16.7922 3.3798 16.8634 3.43231 16.9159C3.48482 16.9684 3.55604 16.9979 3.6303 16.9979H5.24848V18.4895H0.829608C0.755348 18.4895 0.684129 18.519 0.631619 18.5715C0.579109 18.624 0.549609 18.6953 0.549609 18.7695C0.549609 18.8438 0.579109 18.915 0.631619 18.9675C0.68413 19.02 0.755348 19.0495 0.829608 19.0495H18.7695C18.8438 19.0495 18.915 19.02 18.9675 18.9675C19.02 18.915 19.0495 18.8438 19.0495 18.7695C19.0495 18.6953 19.02 18.624 18.9675 18.5715C18.915 18.519 18.8438 18.4895 18.7695 18.4895ZM3.9103 4.268V1.10961H15.6888V4.268H3.9103ZM13.7906 4.828V6.25749H5.80848V4.828H13.7906ZM3.9103 16.4382V6.81749H15.6888V16.4379L3.9103 16.4382ZM13.7906 18.4895H5.80848V16.9982H13.7906V18.4895Z" fill="#80848D" stroke="#80848D" stroke-width="0.1"/>
<path d="M9.50768 2.96838L9.88934 3.35305L9.88935 3.35307C9.94162 3.4058 9.97081 3.47713 9.9705 3.55138C9.97018 3.62562 9.94039 3.6967 9.88767 3.74899L9.85246 3.71349M9.50768 2.96838L9.492 3.74757C9.51786 3.77367 9.54862 3.79441 9.58251 3.80861C9.61641 3.82282 9.65279 3.8302 9.68955 3.83033C9.72632 3.83046 9.76275 3.82334 9.79675 3.80937C9.83076 3.7954 9.86168 3.77486 9.88774 3.74893L9.85246 3.71349M9.50768 2.96838H10.7644C10.8387 2.96838 10.9099 2.93888 10.9624 2.88637C11.0149 2.83386 11.0444 2.76264 11.0444 2.68838C11.0444 2.61412 11.0149 2.5429 10.9624 2.49039C10.9099 2.43788 10.8387 2.40838 10.7644 2.40838H9.50776L9.88932 2.02419L9.88932 2.02419C9.94167 1.97147 9.97093 1.90011 9.97067 1.82582C9.97041 1.75152 9.94064 1.68038 9.88792 1.62803C9.83521 1.57568 9.76385 1.54642 9.68956 1.54668C9.61526 1.54694 9.54411 1.57671 9.49177 1.62943L9.49176 1.62943L8.6363 2.49111C8.63627 2.49114 8.63624 2.49116 8.63621 2.49119L9.50768 2.96838ZM9.85246 3.71349C9.89577 3.67054 9.92024 3.61215 9.9205 3.55116C9.92076 3.49018 9.89678 3.43158 9.85384 3.38827L9.52748 3.71234C9.54872 3.73378 9.57399 3.75083 9.60183 3.7625C9.62967 3.77416 9.65954 3.78022 9.68973 3.78033C9.71992 3.78044 9.74983 3.77459 9.77776 3.76312C9.80568 3.75165 9.83107 3.73478 9.85246 3.71349ZM8.63653 2.88612L9.49196 3.74753L8.66591 2.84193C8.66757 2.84501 8.66924 2.84812 8.67188 2.85076L8.6364 2.88599L8.63645 2.88605C8.63648 2.88607 8.6365 2.88609 8.63653 2.88612ZM8.57666 2.7953C8.57667 2.79532 8.57668 2.79534 8.57669 2.79537L8.62289 2.77624L8.57664 2.79523C8.57665 2.79525 8.57666 2.79528 8.57666 2.7953Z" fill="#80848D" stroke="#80848D" stroke-width="0.1"/>
</svg>
