<svg width="12" height="15" viewBox="0 0 12 15" fill="none" xmlns="http://www.w3.org/2000/svg">
<path d="M0.874691 4.58733H0.838652C0.376674 4.58733 0 4.96521 0 5.42599V9.07734C0 9.53993 0.376674 9.91658 0.838652 9.91658H0.875303C1.33728 9.91658 1.71396 9.53871 1.71396 9.07734V5.42596C1.71334 4.96521 1.33608 4.58733 0.874691 4.58733ZM2.11525 10.4867C2.11525 10.9108 2.46187 11.2563 2.886 11.2563H3.70964V13.2285C3.70964 13.6917 4.08751 14.0684 4.5483 14.0684H4.58433C5.04693 14.0684 5.42418 13.6911 5.42418 13.2285V11.2563H6.57523V13.2285C6.57523 13.6917 6.9543 14.0684 7.41508 14.0684H7.45054C7.9131 14.0684 8.28977 13.6911 8.28977 13.2285V11.2563H9.114C9.53752 11.2563 9.88417 10.9108 9.88417 10.4867V4.72129H2.11525V10.4867ZM7.93471 1.22493L8.58894 0.21508C8.63099 0.151386 8.61236 0.0642989 8.54808 0.0228299C8.48442 -0.0192238 8.3973 -0.00178962 8.35583 0.0636861L7.6776 1.1084C7.16877 0.899943 6.60046 0.782806 6.00029 0.782806C5.39954 0.782806 4.83242 0.899943 4.3224 1.1084L3.64537 0.0636861C3.60392 -0.00178962 3.5162 -0.0192238 3.45192 0.0228299C3.38764 0.064271 3.36901 0.151386 3.41106 0.21508L4.06588 1.22493C2.88539 1.80346 2.0894 2.89382 2.0894 4.14457C2.0894 4.22147 2.09422 4.29716 2.10082 4.37225H9.90035C9.90695 4.29716 9.91115 4.22147 9.91115 4.14457C9.91118 2.89382 9.11458 1.80346 7.93471 1.22493ZM4.19204 3.03318C3.98478 3.03318 3.81656 2.86617 3.81656 2.65832C3.81656 2.45047 3.98478 2.28404 4.19204 2.28404C4.4005 2.28404 4.56751 2.45045 4.56751 2.65832C4.56751 2.86619 4.3993 3.03318 4.19204 3.03318ZM7.80796 3.03318C7.6007 3.03318 7.43249 2.86617 7.43249 2.65832C7.43249 2.45047 7.6007 2.28404 7.80796 2.28404C8.01581 2.28404 8.18283 2.45045 8.18283 2.65832C8.18283 2.86617 8.01581 3.03318 7.80796 3.03318ZM11.1607 4.58733H11.1259C10.6639 4.58733 10.286 4.96521 10.286 5.42599V9.07734C10.286 9.53993 10.6645 9.91658 11.1259 9.91658H11.1613C11.6239 9.91658 12 9.53871 12 9.07734V5.42596C12 4.96521 11.6227 4.58733 11.1607 4.58733Z" fill="#3DDC84"/>
</svg>
