<svg width="10" height="10" viewBox="0 0 10 10" fill="none" xmlns="http://www.w3.org/2000/svg">
<path fill-rule="evenodd" clip-rule="evenodd" d="M4.32129 9.32058C4.32129 9.69589 4.6254 10 5.00071 10C5.37602 10 5.68013 9.69589 5.68013 9.32058V5.68013H9.32058C9.69589 5.68013 10 5.37602 10 5.00071C10 4.6254 9.69589 4.32129 9.32058 4.32129H5.68013V0.679421C5.68013 0.30411 5.37602 0 5.00071 0C4.6254 0 4.32129 0.30411 4.32129 0.679421V4.32129H0.679421C0.30411 4.32129 0 4.6254 0 5.00071C0 5.37602 0.30411 5.68013 0.679421 5.68013H4.32129V9.32058Z" fill="white"/>
</svg>
