<svg width="9" height="9" viewBox="0 0 9 9" fill="none" xmlns="http://www.w3.org/2000/svg">
<path fill-rule="evenodd" clip-rule="evenodd" d="M3.42071 4.49965L0.219692 1.29864C0.0779776 1.15692 -0.00104439 0.964123 1.0426e-05 0.762653C0.00106524 0.561184 0.0821106 0.367547 0.225317 0.22434C0.368523 0.081134 0.56216 8.8681e-05 0.76363 -0.000966137C0.965099 -0.00202095 1.1579 0.0770011 1.29961 0.218716L4.50063 3.41973L7.70039 0.219974C7.8421 0.078259 8.0349 -0.000763509 8.23637 0.000291309C8.43784 0.00134613 8.63148 0.082392 8.77468 0.225598C8.91789 0.368805 8.99893 0.562441 8.99999 0.763911C9.00104 0.96538 8.92202 1.15818 8.78031 1.29989L5.58055 4.49965L8.78031 7.69941C8.92202 7.84112 9.00104 8.03392 8.99999 8.23539C8.99893 8.43686 8.91789 8.6305 8.77468 8.77371C8.63148 8.91691 8.43784 8.99796 8.23637 8.99901C8.0349 9.00007 7.8421 8.92104 7.70039 8.77933L4.50063 5.57957L1.29961 8.78059C1.1579 8.9223 0.965099 9.00132 0.76363 9.00027C0.56216 8.99922 0.368523 8.91817 0.225317 8.77496C0.0821106 8.63176 0.00106524 8.43812 1.0426e-05 8.23665C-0.00104439 8.03518 0.0779776 7.84238 0.219692 7.70067L3.42071 4.49965Z" fill="#20A8D9"/>
</svg>
