<svg width="12" height="12" viewBox="0 0 12 12" fill="none" xmlns="http://www.w3.org/2000/svg">
<path d="M8.55511 5.29289C8.16458 5.68342 8.16458 6.31658 8.55511 6.70711L11.2929 9.44489C11.6834 9.83542 11.6834 10.4686 11.2929 10.8591L10.8591 11.2929C10.4686 11.6834 9.83542 11.6834 9.44489 11.2929L6.70711 8.55511C6.31658 8.16458 5.68342 8.16458 5.29289 8.55511L2.55511 11.2929C2.16458 11.6834 1.53142 11.6834 1.14089 11.2929L0.707107 10.8591C0.316583 10.4686 0.316583 9.83542 0.707107 9.44489L3.44489 6.70711C3.83542 6.31658 3.83542 5.68342 3.44489 5.29289L0.707107 2.55511C0.316583 2.16458 0.316583 1.53142 0.707107 1.14089L1.14089 0.707107C1.53142 0.316583 2.16458 0.316583 2.55511 0.707107L5.29289 3.44489C5.68342 3.83542 6.31658 3.83542 6.70711 3.44489L9.44489 0.707107C9.83542 0.316583 10.4686 0.316583 10.8591 0.707107L11.2929 1.14089C11.6834 1.53142 11.6834 2.16458 11.2929 2.55511L8.55511 5.29289Z" fill="#666666"/>
</svg>
