<svg width="9" height="11" viewBox="0 0 9 11" fill="none" xmlns="http://www.w3.org/2000/svg">
<path d="M9 2.92166C9 3.56411 8.48887 4.08668 7.86048 4.08668C7.23232 4.08668 6.72119 3.56411 6.72119 2.92166C6.72119 2.27944 7.23232 1.75686 7.86048 1.75686C8.48887 1.75684 9 2.27942 9 2.92166ZM7.69782 4.39159L7.38952 10.4839C7.38056 10.6612 7.23777 10.8 7.0642 10.8H1.34044C1.1673 10.8 1.02451 10.6609 1.01512 10.4837L0.634998 2.97277L0.860773 2.91094H6.4138C6.4138 2.91451 6.41357 2.91809 6.41357 2.92166C6.41355 3.68128 6.97643 4.30855 7.69782 4.39159ZM2.68279 9.56711L2.53957 4.13577C2.53433 3.91768 2.3566 3.74558 2.14154 3.75003C1.92888 3.75629 1.75989 3.93844 1.76513 4.15608V4.15653L1.90815 9.58787C1.91339 9.80262 2.08631 9.97382 2.29659 9.97382C2.29987 9.97382 2.30292 9.97382 2.3062 9.97361C2.35697 9.97221 2.40697 9.96057 2.45332 9.93935C2.49968 9.91812 2.54147 9.88774 2.57629 9.84994C2.64786 9.77292 2.68564 9.67226 2.68279 9.56711ZM4.58978 4.13824C4.58978 3.91992 4.4162 3.74222 4.20266 3.74222C3.98869 3.74222 3.81468 3.91992 3.81468 4.13824V9.57203C3.81468 9.79035 3.98869 9.96804 4.20266 9.96804C4.4162 9.96804 4.58978 9.79035 4.58978 9.57203V4.13824ZM6.63953 4.15676C6.64258 4.05116 6.60481 3.95071 6.53319 3.8737C6.49827 3.8358 6.45634 3.80535 6.40983 3.78412C6.36332 3.7629 6.31315 3.75131 6.26223 3.75003C6.25918 3.74982 6.2559 3.74982 6.25285 3.74982C6.04411 3.74982 5.8712 3.92059 5.86507 4.13533L5.72185 9.56755C5.7166 9.7852 5.8856 9.96734 6.09914 9.97361C6.10242 9.97382 6.10547 9.97382 6.10875 9.97382C6.31835 9.97382 6.49129 9.8026 6.4963 9.58831L6.63953 4.15676ZM6.91748 0.494506C6.88953 0.387582 6.82206 0.297849 6.72752 0.242035C6.63276 0.18601 6.52294 0.171054 6.41836 0.199615L4.45352 0.738033C4.41689 0.748028 4.37794 0.743852 4.34414 0.726305C4.31034 0.708758 4.28405 0.679074 4.27033 0.642942C4.08824 0.162786 3.5841 -0.098608 3.09741 0.0346411C2.61095 0.167911 2.30222 0.652097 2.37887 1.16128C2.38467 1.19953 2.37645 1.23862 2.35577 1.27105C2.33509 1.30347 2.30343 1.32694 2.26685 1.33695L0.302454 1.87492C0.0852006 1.93474 -0.044058 2.16401 0.0138144 2.3859L0.119718 2.78837L7.02339 0.896953L6.91748 0.494506Z" fill="#F7705F"/>
</svg>
