<svg width="23" height="17" viewBox="0 0 23 17" fill="none" xmlns="http://www.w3.org/2000/svg">
<path d="M20.5894 0.15332H1.87178C0.839443 0.15332 0 0.992763 0 2.0251V15.1275C0 16.1598 0.839443 16.9992 1.87178 16.9992H20.5895C21.6217 16.9992 22.4612 16.1598 22.4612 15.1274V2.0251C22.4612 0.992763 21.6217 0.15332 20.5894 0.15332ZM1.87178 1.08919H20.5895C20.6584 1.08919 20.7192 1.11433 20.7839 1.12854C19.1634 2.61164 13.7901 7.5273 11.9097 9.2215C11.7626 9.35403 11.5254 9.51214 11.2306 9.51214C10.9359 9.51214 10.6987 9.35403 10.5511 9.22106C8.6709 7.52713 3.29728 2.6112 1.67704 1.12863C1.74188 1.11441 1.80277 1.08919 1.87178 1.08919ZM0.935868 15.1274V2.0251C0.935868 1.93341 0.963506 1.85024 0.988249 1.76645C2.22853 2.90161 5.97779 6.33151 8.40886 8.54222C5.98569 10.6237 2.23546 14.1792 0.985309 15.3713C0.963243 15.2918 0.935868 15.2139 0.935868 15.1274ZM20.5894 16.0633H1.87178C1.79703 16.0633 1.73056 16.0373 1.66077 16.0206C2.95259 14.7891 6.72669 11.2131 9.10727 9.17658C9.37931 9.42352 9.65174 9.67004 9.92456 9.91613C10.3103 10.2644 10.7617 10.448 11.2306 10.448C11.6995 10.448 12.1509 10.2643 12.5362 9.91657C12.8091 9.67032 13.0817 9.42366 13.3539 9.17658C15.7346 11.2129 19.5082 14.7886 20.8004 16.0206C20.7306 16.0373 20.6643 16.0633 20.5894 16.0633ZM21.5253 15.1274C21.5253 15.2139 21.4979 15.2918 21.4759 15.3713C20.2253 14.1786 16.4755 10.6235 14.0524 8.54227C16.4835 6.33155 20.2322 2.90196 21.4729 1.76636C21.4977 1.85015 21.5253 1.93337 21.5253 2.02506V15.1274Z" fill="#666666"/>
</svg>
