<svg width="10" height="11" viewBox="0 0 10 11" fill="none" xmlns="http://www.w3.org/2000/svg">
<path d="M6.17553 2.07172L0.673402 7.58005C0.645695 7.60785 0.625949 7.64259 0.616223 7.68064L0.00634442 10.1311C-0.00262535 10.1674 -0.00207565 10.2055 0.00794042 10.2416C0.0179565 10.2777 0.0371004 10.3106 0.0635231 10.3371C0.104108 10.3776 0.159058 10.4003 0.216358 10.4004C0.234034 10.4004 0.251643 10.3982 0.268786 10.3939L2.71665 9.78329C2.75471 9.77371 2.78945 9.75395 2.81715 9.72613L8.31979 4.21819L6.17553 2.07172ZM9.6829 1.32067L9.07042 0.707571C8.66107 0.297794 7.94762 0.298201 7.53874 0.707571L6.78849 1.45862L8.93265 3.60501L9.6829 2.85398C9.88737 2.64937 10 2.37702 10 2.08738C10 1.79773 9.88737 1.52538 9.6829 1.32067Z" fill="#878B93"/>
</svg>
