<svg width="16" height="16" viewBox="0 0 16 16" fill="none" xmlns="http://www.w3.org/2000/svg">
<path d="M15.8485 15.1298L11.7175 11.0648C12.7993 9.8895 13.4639 8.33512 13.4639 6.62468C13.4634 2.96574 10.4497 0 6.73171 0C3.01376 0 0 2.96574 0 6.62468C0 10.2836 3.01376 13.2494 6.73171 13.2494C8.33812 13.2494 9.81149 12.6937 10.9688 11.77L15.1158 15.851C15.3179 16.0501 15.646 16.0501 15.848 15.851C15.8961 15.8041 15.9343 15.748 15.9604 15.6861C15.9865 15.6242 16 15.5577 16 15.4905C16 15.4233 15.9867 15.3568 15.9606 15.2949C15.9346 15.233 15.8965 15.1768 15.8485 15.1298ZM6.73171 12.2301C3.58592 12.2301 1.03577 9.72048 1.03577 6.62468C1.03577 3.52888 3.58592 1.01925 6.73171 1.01925C9.87753 1.01925 12.4277 3.52888 12.4277 6.62468C12.4277 9.72048 9.87753 12.2301 6.73171 12.2301Z" fill="#666666"/>
</svg>
