<svg width="16" height="15" viewBox="0 0 16 15" fill="none" xmlns="http://www.w3.org/2000/svg">
<path d="M1.29626 13.1431H4.58332C4.52891 13.3415 4.41368 13.62 4.16723 13.94H3.64873C3.47269 13.94 3.32867 14.084 3.32867 14.2601C3.32867 14.4361 3.47269 14.5801 3.64873 14.5801H12.3545C12.5305 14.5801 12.6745 14.4361 12.6745 14.2601C12.6745 14.084 12.5305 13.94 12.3545 13.94H11.8328C11.5863 13.62 11.4679 13.3415 11.4167 13.1431H14.7037C15.4207 13.1431 16 12.5605 16 11.8436V1.55994C16 0.843001 15.4175 0.263685 14.7037 0.263685H1.29626C0.582517 0.260484 0 0.843001 0 1.55994V11.8436C-1.04371e-06 12.1877 0.136467 12.5177 0.379471 12.7613C0.622475 13.0049 0.952176 13.1422 1.29626 13.1431ZM4.93539 13.94C5.11462 13.6232 5.20104 13.3447 5.23945 13.1431H10.7606C10.799 13.3447 10.8854 13.6232 11.0646 13.94H4.93539ZM0.640128 1.55994C0.640128 1.19827 0.934587 0.903813 1.29626 0.903813H14.7037C15.0654 0.903813 15.3599 1.19827 15.3599 1.55994V10.701H0.640128V1.55994ZM0.640128 11.3411H15.3631V11.8436C15.3631 12.2053 15.0686 12.5029 14.7069 12.5029H1.29626C0.934587 12.5029 0.640128 12.2053 0.640128 11.8436V11.3411Z" fill="#80848D"/>
<path d="M8.00166 3.93164C6.99346 3.93164 6.1709 4.7542 6.1709 5.76241C6.1709 6.77061 6.99346 7.59317 8.00166 7.59317C9.00987 7.59317 9.83243 6.77061 9.83243 5.76241C9.83243 4.7542 9.00987 3.93164 8.00166 3.93164ZM8.00166 6.95305C7.34553 6.95305 6.81103 6.41854 6.81103 5.76241C6.81103 5.10628 7.34553 4.57177 8.00166 4.57177C8.6578 4.57177 9.1923 5.10628 9.1923 5.76241C9.1923 6.41854 8.6578 6.95305 8.00166 6.95305Z" fill="#80848D"/>
<path d="M11.0484 4.01127C10.9684 3.98567 10.8788 3.99207 10.8019 4.03048C10.7251 4.06889 10.5427 4.03048 10.3987 3.85124C10.2546 3.67201 10.2578 3.48317 10.3122 3.41916C10.3667 3.35194 10.3955 3.26873 10.3891 3.18231C10.3827 3.09589 10.3378 3.01588 10.2706 2.96146C9.83855 2.60939 9.32004 2.35974 8.77594 2.24132C8.69272 2.22212 8.6031 2.23812 8.53269 2.28613C8.46227 2.33414 8.41106 2.40775 8.39506 2.49417C8.37906 2.58059 8.23183 2.69581 8.00138 2.69581C7.77094 2.69581 7.62691 2.57739 7.6077 2.49417C7.5917 2.41095 7.54049 2.33414 7.47008 2.28613C7.39966 2.23812 7.31004 2.22212 7.22683 2.24132C6.68272 2.35974 6.16421 2.60939 5.73213 2.96146C5.66491 3.01588 5.62331 3.09589 5.6137 3.18231C5.6073 3.26873 5.63291 3.35514 5.69052 3.41916C5.74813 3.48637 5.74813 3.67201 5.6041 3.85124C5.46007 4.03048 5.27764 4.07209 5.20082 4.03048C5.16315 4.01086 5.1219 3.99904 5.07956 3.99574C5.03721 3.99244 4.99463 3.99773 4.95437 4.01127C4.87116 4.03688 4.80394 4.09769 4.76874 4.17451C4.52229 4.67701 4.39746 5.21151 4.39746 5.78763C4.39746 5.87405 4.43267 5.95726 4.49348 6.01808C4.55429 6.07569 4.63431 6.10769 4.71752 6.10769H4.73033C4.81675 6.10769 4.96077 6.22292 5.01198 6.44376C5.06319 6.66781 4.97998 6.83744 4.89996 6.87265C4.81995 6.90785 4.75913 6.97187 4.73033 7.05508C4.70152 7.1351 4.70472 7.22472 4.73993 7.30153C4.97998 7.80723 5.33525 8.25532 5.77374 8.59779C5.84095 8.6522 5.92737 8.67461 6.01378 8.665C6.1002 8.6522 6.17702 8.60739 6.22823 8.54018C6.27944 8.46977 6.46187 8.42816 6.66992 8.52738C6.87796 8.6266 6.95797 8.79623 6.93557 8.87945C6.91316 8.96266 6.92597 9.05228 6.97078 9.1259C7.01558 9.19951 7.0892 9.25392 7.17242 9.27313C7.45087 9.34034 7.72933 9.37235 8.00138 9.37235C8.27344 9.37235 8.55189 9.34034 8.83035 9.27313C8.91356 9.25392 8.98718 9.19951 9.03199 9.1259C9.0768 9.05228 9.0896 8.96266 9.0672 8.87945C9.04479 8.79623 9.12481 8.6266 9.33285 8.52738C9.54089 8.42816 9.72333 8.46977 9.77454 8.54018C9.82575 8.61059 9.90256 8.6554 9.98898 8.665C10.0754 8.67461 10.1618 8.6522 10.229 8.59779C10.6675 8.25532 11.0228 7.80723 11.2628 7.30153C11.281 7.26323 11.2912 7.22165 11.2929 7.17929C11.2945 7.13693 11.2876 7.09468 11.2724 7.05508C11.2436 6.97507 11.1828 6.90785 11.1028 6.87265C11.0228 6.83744 10.9428 6.66781 10.9908 6.44376C11.042 6.22292 11.186 6.10769 11.2724 6.10769H11.2756C11.4453 6.11089 11.5925 5.97007 11.6053 5.80043V5.76522C11.6053 5.21151 11.4805 4.67701 11.234 4.17771C11.2174 4.13793 11.1921 4.10236 11.16 4.07357C11.1279 4.04479 11.0897 4.02351 11.0484 4.01127ZM10.3667 6.30293C10.2834 6.6614 10.3667 7.01667 10.5651 7.25032C10.4179 7.50317 10.2354 7.73362 10.021 7.93206C9.74893 7.79123 9.38726 7.78803 9.05439 7.94806C8.72153 8.10809 8.49748 8.39295 8.43667 8.69381C8.14221 8.73862 7.86055 8.73862 7.56289 8.69381C7.50528 8.39295 7.27804 8.10809 6.94517 7.94806C6.6123 7.78803 6.25063 7.78803 5.97858 7.93206C5.76442 7.73304 5.58104 7.50328 5.43447 7.25032C5.63291 7.01667 5.71612 6.66461 5.63291 6.30293C5.54969 5.94126 5.32245 5.6596 5.04079 5.53478C5.06319 5.24352 5.13041 4.95866 5.23603 4.68661C5.54329 4.69301 5.86976 4.53938 6.1002 4.25132C6.33065 3.96327 6.41066 3.60799 6.33065 3.31033C6.5707 3.1471 6.83635 3.01908 7.11801 2.93266C7.30044 3.17911 7.62691 3.33914 7.99818 3.33914C8.36625 3.33914 8.69592 3.17911 8.87836 2.93266C9.15681 3.01908 9.42247 3.1471 9.66571 3.31033C9.5857 3.60799 9.66571 3.96327 9.89616 4.25132C10.1266 4.53938 10.4531 4.69621 10.7603 4.68661C10.8692 4.96186 10.9364 5.24672 10.9588 5.53478C10.6771 5.6564 10.4499 5.94126 10.3667 6.30293Z" fill="#80848D"/>
</svg>
