<svg width="18" height="18" viewBox="0 0 18 18" fill="none" xmlns="http://www.w3.org/2000/svg">
<path d="M16.2069 17.75H11.1681C10.759 17.7495 10.3668 17.5868 10.0775 17.2975C9.78823 17.0082 9.6255 16.616 9.625 16.2069V9.91813C9.6255 9.50902 9.78823 9.1168 10.0775 8.82752C10.3668 8.53823 10.759 8.3755 11.1681 8.375H16.2069C16.616 8.3755 17.0082 8.53823 17.2975 8.82752C17.5868 9.1168 17.7495 9.50902 17.75 9.91813V16.2069C17.7495 16.616 17.5868 17.0082 17.2975 17.2975C17.0082 17.5868 16.616 17.7495 16.2069 17.75ZM11.1681 9.625C11.1296 9.625 11.0915 9.63258 11.056 9.64731C11.0204 9.66204 10.9881 9.68364 10.9609 9.71085C10.9336 9.73807 10.912 9.77039 10.8973 9.80595C10.8826 9.84151 10.875 9.87963 10.875 9.91813V16.2069C10.875 16.3687 11.0063 16.5 11.1681 16.5H16.2069C16.3687 16.5 16.5 16.3687 16.5 16.2069V9.91813C16.5 9.84038 16.4691 9.76583 16.4141 9.71085C16.3592 9.65588 16.2846 9.625 16.2069 9.625H11.1681ZM16.2069 7.125H11.1681C10.759 7.1245 10.3668 6.96177 10.0775 6.67248C9.78823 6.3832 9.6255 5.99098 9.625 5.58187V1.79312C9.6255 1.38402 9.78823 0.991804 10.0775 0.702519C10.3668 0.413234 10.759 0.250496 11.1681 0.25H16.2069C16.616 0.250496 17.0082 0.413234 17.2975 0.702519C17.5868 0.991804 17.7495 1.38402 17.75 1.79312V5.58187C17.7495 5.99098 17.5868 6.3832 17.2975 6.67248C17.0082 6.96177 16.616 7.1245 16.2069 7.125ZM11.1681 1.5C11.1296 1.5 11.0915 1.50758 11.056 1.52231C11.0204 1.53704 10.9881 1.55864 10.9609 1.58585C10.9336 1.61307 10.912 1.64539 10.8973 1.68095C10.8826 1.71651 10.875 1.75463 10.875 1.79312V5.58187C10.875 5.74375 11.0063 5.875 11.1681 5.875H16.2069C16.3687 5.875 16.5 5.74375 16.5 5.58187V1.79312C16.5 1.71538 16.4691 1.64083 16.4141 1.58585C16.3592 1.53088 16.2846 1.5 16.2069 1.5H11.1681ZM6.83187 9.625H1.79312C1.38402 9.6245 0.991804 9.46177 0.702519 9.17248C0.413234 8.8832 0.250496 8.49098 0.25 8.08187V1.79312C0.250496 1.38402 0.413234 0.991804 0.702519 0.702519C0.991804 0.413234 1.38402 0.250496 1.79312 0.25H6.83187C7.24098 0.250496 7.6332 0.413234 7.92248 0.702519C8.21177 0.991804 8.3745 1.38402 8.375 1.79312V8.08187C8.3745 8.49098 8.21177 8.8832 7.92248 9.17248C7.6332 9.46177 7.24098 9.6245 6.83187 9.625ZM1.79312 1.5C1.71538 1.5 1.64083 1.53088 1.58585 1.58585C1.53088 1.64083 1.5 1.71538 1.5 1.79312V8.08187C1.5 8.24375 1.63125 8.375 1.79312 8.375H6.83187C6.99375 8.375 7.125 8.24375 7.125 8.08187V1.79312C7.125 1.71538 7.09412 1.64083 7.03915 1.58585C6.98417 1.53088 6.90962 1.5 6.83187 1.5H1.79312ZM6.83187 17.75H1.79312C1.38402 17.7495 0.991804 17.5868 0.702519 17.2975C0.413234 17.0082 0.250496 16.616 0.25 16.2069V12.4181C0.250496 12.009 0.413234 11.6168 0.702519 11.3275C0.991804 11.0382 1.38402 10.8755 1.79312 10.875H6.83187C7.24098 10.8755 7.6332 11.0382 7.92248 11.3275C8.21177 11.6168 8.3745 12.009 8.375 12.4181V16.2069C8.3745 16.616 8.21177 17.0082 7.92248 17.2975C7.6332 17.5868 7.24098 17.7495 6.83187 17.75ZM1.79312 12.125C1.71538 12.125 1.64083 12.1559 1.58585 12.2109C1.53088 12.2658 1.5 12.3404 1.5 12.4181V16.2069C1.5 16.3687 1.63125 16.5 1.79312 16.5H6.83187C6.99375 16.5 7.125 16.3687 7.125 16.2069V12.4181C7.125 12.3404 7.09412 12.2658 7.03915 12.2109C6.98417 12.1559 6.90962 12.125 6.83187 12.125H1.79312Z" fill="#20A8D9"/>
</svg>
