<svg width="16" height="17" viewBox="0 0 16 17" fill="none" xmlns="http://www.w3.org/2000/svg">
<path d="M0.794342 9.68326L3.09701 8.72353V8.03451C2.78005 7.85259 2.50558 7.60509 2.29197 7.30856C2.07835 7.01204 1.93051 6.67332 1.85832 6.31506H1.80671C1.60139 6.31787 1.40336 6.23899 1.25618 6.09579C1.10901 5.95259 1.02476 5.75679 1.02195 5.55146C1.01915 5.34614 1.09802 5.14811 1.24122 5.00094C1.38442 4.85376 1.58022 4.76951 1.78555 4.7667L1.53265 4.18039C1.31656 3.67938 1.30551 3.11362 1.50188 2.60455C1.69825 2.09549 2.08638 1.68371 2.58295 1.4576L3.30346 1.12987C3.72979 0.940582 4.1986 0.867428 4.66233 0.917825C5.12606 0.968223 5.56821 1.14038 5.94392 1.41683L6.34547 1.71979C6.75546 1.82538 7.1076 2.08773 7.32609 2.45036C7.44676 2.65068 7.52206 2.87501 7.54667 3.10757C7.57128 3.34013 7.54461 3.57526 7.46854 3.7964C7.85814 3.71847 8.2602 3.72825 8.64555 3.82504C8.53524 3.35682 8.5909 2.86483 8.80303 2.4331C9.01516 2.00136 9.37059 1.65666 9.80863 1.45786L10.5291 1.12987C10.9555 0.940582 11.4243 0.867428 11.888 0.917825C12.3517 0.968223 12.7939 1.14038 13.1696 1.41683L13.5711 1.71979C13.8037 1.77922 14.02 1.88997 14.2042 2.04391C14.3884 2.19786 14.5357 2.39109 14.6355 2.60943C14.7352 2.82777 14.7848 3.06567 14.7806 3.30567C14.7764 3.54568 14.7185 3.78169 14.6111 3.99639L14.2256 4.7667C14.4309 4.77095 14.6261 4.85658 14.7683 5.00477C14.9105 5.15295 14.988 5.35156 14.9838 5.55688C14.9795 5.76221 14.8939 5.95744 14.7457 6.09962C14.5975 6.24181 14.3989 6.3193 14.1936 6.31506H14.142C14.0695 6.67314 13.9215 7.01167 13.7079 7.30807C13.4944 7.60447 13.22 7.85195 12.9033 8.034V8.72353L15.2059 9.68326C15.4413 9.78085 15.6425 9.94613 15.7838 10.1581C15.9252 10.3702 16.0004 10.6194 16 10.8742V14.3149C16 14.3834 15.9728 14.449 15.9244 14.4974C15.876 14.5458 15.8104 14.573 15.7419 14.573H13.9355V16.6375C13.9355 16.7059 13.9083 16.7715 13.8599 16.8199C13.8115 16.8683 13.7459 16.8955 13.6775 16.8955H2.32283C2.25439 16.8955 2.18875 16.8683 2.14035 16.8199C2.09196 16.7715 2.06477 16.7059 2.06477 16.6375V14.573H0.258352C0.18991 14.573 0.124271 14.5458 0.0758762 14.4974C0.0274801 14.449 0.000291824 14.3834 0.000291824 14.3149V10.8742C-0.0001297 10.6194 0.0751076 10.3702 0.216468 10.1581C0.357829 9.94613 0.558949 9.78085 0.794342 9.68326ZM7.12971 4.43819L6.40946 4.7667C6.03588 4.93689 5.74391 5.24676 5.59622 5.6298C5.44854 6.01283 5.45691 6.4385 5.61954 6.81544L5.69696 6.99221L5.96147 6.45777C5.97834 6.42373 6.00251 6.39384 6.03226 6.37022C6.06201 6.34661 6.09661 6.32985 6.13359 6.32115C6.17056 6.31245 6.209 6.31202 6.24616 6.31989C6.28332 6.32775 6.31829 6.34373 6.34856 6.36667L6.76146 6.67634C7.11881 6.94436 7.55345 7.08924 8.00014 7.08924C8.44684 7.08924 8.88148 6.94436 9.23883 6.67634L9.65173 6.36667C9.68186 6.34386 9.71668 6.32801 9.75367 6.32029C9.79067 6.31257 9.82892 6.31317 9.86566 6.32203C9.90251 6.33067 9.93701 6.3473 9.96671 6.37076C9.99641 6.39422 10.0206 6.42392 10.0375 6.45777L10.3227 7.03014L10.5358 6.60409C10.619 6.43775 10.6583 6.25293 10.6499 6.06716C10.6416 5.88138 10.5859 5.70082 10.4882 5.54261C10.3905 5.38439 10.2539 5.25377 10.0916 5.16314C9.92918 5.07251 9.74634 5.02488 9.56037 5.02476C9.36158 5.02457 9.16582 5.07355 8.99054 5.16734C8.81526 5.26112 8.66589 5.39681 8.55575 5.5623L8.47472 5.6841L8.04531 5.39766L8.12634 5.27611C8.35569 4.93246 8.70116 4.68291 9.09948 4.57316C8.80675 4.3925 8.47445 4.28581 8.13127 4.2623C7.78809 4.23878 7.44434 4.29915 7.12971 4.43819ZM5.41955 8.12148H5.16149C5.09305 8.12148 5.02741 8.14867 4.97901 8.19706C4.93062 8.24546 4.90343 8.3111 4.90343 8.37954C4.90343 8.44798 4.93062 8.51362 4.97901 8.56201C5.02741 8.61041 5.09305 8.6376 5.16149 8.6376H5.41955V8.12148ZM8.77432 11.0992C8.27039 11.2578 7.7299 11.2578 7.22597 11.0992V11.6275L8.00014 12.4017L8.77432 11.6275V11.0992ZM8.00014 10.7021C8.54749 10.7015 9.07224 10.4838 9.45927 10.0967C9.8463 9.70969 10.064 9.18494 10.0646 8.6376V7.66626L9.71418 6.96511L9.5485 7.08924C9.10181 7.42426 8.55851 7.60536 8.00014 7.60536C7.44178 7.60536 6.89848 7.42426 6.45179 7.08924L6.28611 6.96511L5.93567 7.66626V8.6376C5.93628 9.18494 6.15399 9.70969 6.54102 10.0967C6.92805 10.4838 7.4528 10.7015 8.00014 10.7021ZM10.5807 8.6376H10.8388C10.9072 8.6376 10.9729 8.61041 11.0213 8.56201C11.0697 8.51362 11.0969 8.44798 11.0969 8.37954C11.0969 8.3111 11.0697 8.24546 11.0213 8.19706C10.9729 8.14867 10.9072 8.12148 10.8388 8.12148H10.5807V8.6376ZM13.9355 13.8091V14.0569H15.4839V10.8742C15.484 10.7214 15.4388 10.572 15.354 10.4449C15.2692 10.3178 15.1486 10.2187 15.0075 10.1602L12.5459 9.13462C12.4987 9.11496 12.4585 9.08176 12.4303 9.03922C12.402 8.99669 12.387 8.94672 12.3872 8.89566V7.87993C12.3885 7.83104 12.4031 7.78344 12.4295 7.74222C12.4558 7.70099 12.4928 7.66769 12.5366 7.64587C12.8451 7.49242 13.1101 7.2639 13.3072 6.98131C13.5044 6.69872 13.6273 6.37113 13.6648 6.02861C13.6718 5.96547 13.7018 5.90712 13.7492 5.86474C13.7965 5.82237 13.8578 5.79894 13.9213 5.79894H14.1936C14.262 5.79894 14.3277 5.77175 14.3761 5.72336C14.4245 5.67496 14.4516 5.60932 14.4516 5.54088C14.4516 5.47244 14.4245 5.4068 14.3761 5.35841C14.3277 5.31001 14.262 5.28282 14.1936 5.28282H13.9355C13.9015 5.28282 13.8678 5.27609 13.8363 5.26301C13.8049 5.24992 13.7764 5.23075 13.7524 5.2066C13.7284 5.18245 13.7094 5.15378 13.6966 5.12227C13.6837 5.09075 13.6772 5.057 13.6775 5.02295L13.6793 4.7649C13.6795 4.72547 13.6888 4.68663 13.7064 4.65135L14.1495 3.76543C14.2237 3.61669 14.2629 3.45296 14.2642 3.28674C14.2655 3.12052 14.2288 2.9562 14.1569 2.80632C14.085 2.65645 13.9798 2.52499 13.8494 2.42197C13.7189 2.31895 13.5666 2.2471 13.4042 2.21191C13.3677 2.20382 13.3333 2.18808 13.3033 2.16572L12.8594 1.83024C12.5582 1.60887 12.2039 1.47103 11.8323 1.4307C11.4607 1.39037 11.085 1.44897 10.7433 1.60057L10.0223 1.92804C9.64872 2.09823 9.35674 2.4081 9.20906 2.79114C9.06137 3.17418 9.06975 3.59985 9.23238 3.97678L9.27419 4.07355C9.37218 4.12781 9.46641 4.18859 9.55625 4.25549L9.96321 4.56025C10.1953 4.61988 10.4111 4.73071 10.5948 4.88461C10.7785 5.03852 10.9254 5.23159 11.0247 5.44966C11.124 5.66774 11.1733 5.90528 11.1689 6.14488C11.1644 6.38447 11.1064 6.62003 10.9991 6.83428L10.613 7.60536H10.8388C11.0441 7.60536 11.241 7.68692 11.3862 7.83211C11.5314 7.9773 11.613 8.17421 11.613 8.37954C11.613 8.58486 11.5314 8.78178 11.3862 8.92697C11.241 9.07215 11.0441 9.15372 10.8388 9.15372H10.5291C10.4552 9.51079 10.3067 9.8482 10.0932 10.1438C9.87971 10.4394 9.60615 10.6866 9.29044 10.869V11.5382L12.9905 12.566C13.2619 12.642 13.5011 12.8046 13.6717 13.029C13.8422 13.2533 13.9349 13.5273 13.9355 13.8091ZM2.58089 16.3794H4.12925V14.3149H4.64537V16.3794H11.3549V14.3149H11.871V16.3794H13.4194V13.8091C13.419 13.6399 13.3633 13.4755 13.2609 13.3408C13.1584 13.2062 13.0147 13.1087 12.8517 13.0633L9.10748 12.0233L8.18182 12.949C8.13343 12.9974 8.0678 13.0246 7.99937 13.0246C7.93094 13.0246 7.86532 12.9974 7.81692 12.949L6.89126 12.0233L3.14862 13.0633C2.98562 13.1087 2.84193 13.2062 2.73943 13.3408C2.63694 13.4755 2.58127 13.6399 2.58089 13.8091V16.3794ZM0.516412 14.0569H2.06477V13.8091C2.0654 13.5273 2.15805 13.2533 2.32863 13.029C2.4992 12.8046 2.73837 12.642 3.00978 12.566L6.70985 11.5382V10.869C6.39414 10.6866 6.12058 10.4394 5.90711 10.1438C5.69363 9.8482 5.54507 9.51079 5.47116 9.15372H5.16149C4.95616 9.15372 4.75925 9.07215 4.61406 8.92697C4.46887 8.78178 4.38731 8.58486 4.38731 8.37954C4.38731 8.17421 4.46887 7.9773 4.61406 7.83211C4.75925 7.68692 4.95616 7.60536 5.16149 7.60536H5.39839L5.14549 7.01931C4.9294 6.51829 4.91835 5.95253 5.11472 5.44347C5.31109 4.9344 5.69922 4.52262 6.19579 4.29652L6.79449 4.02375L6.92352 3.76569C6.99779 3.61696 7.0371 3.45322 7.03843 3.28698C7.03976 3.12074 7.00309 2.9564 6.93122 2.80649C6.85934 2.65659 6.75416 2.5251 6.6237 2.42205C6.49325 2.319 6.34097 2.24712 6.1785 2.21191C6.14198 2.20382 6.10759 2.18808 6.0776 2.16572L5.63374 1.83024C5.33255 1.60887 4.9782 1.47103 4.60659 1.4307C4.23498 1.39037 3.85932 1.44897 3.51765 1.60057L2.79663 1.92804C2.42304 2.09823 2.13107 2.4081 1.98339 2.79114C1.8357 3.17418 1.84407 3.59985 2.00671 3.97678L2.30348 4.66348C2.31755 4.69606 2.32476 4.7312 2.32464 4.7667L2.32283 5.02476C2.32283 5.0932 2.29564 5.15884 2.24725 5.20724C2.19885 5.25563 2.13321 5.28282 2.06477 5.28282H1.80671C1.73827 5.28282 1.67263 5.31001 1.62424 5.35841C1.57584 5.4068 1.54865 5.47244 1.54865 5.54088C1.54865 5.60932 1.57584 5.67496 1.62424 5.72336C1.67263 5.77175 1.73827 5.79894 1.80671 5.79894H2.07896C2.14249 5.79894 2.20379 5.82237 2.25112 5.86474C2.29845 5.90712 2.32849 5.96547 2.33547 6.02861C2.37311 6.37243 2.4969 6.70118 2.69538 6.98443C2.89386 7.26767 3.16062 7.49624 3.47094 7.64897C3.51393 7.67034 3.55011 7.70327 3.57542 7.74407C3.60072 7.78487 3.61414 7.83192 3.61416 7.87993V8.89566C3.61417 8.94659 3.5991 8.99639 3.57086 9.03877C3.54261 9.08116 3.50246 9.11424 3.45545 9.13385L0.99279 10.1602C0.851682 10.2187 0.731111 10.3178 0.646317 10.4449C0.561525 10.572 0.516318 10.7214 0.516412 10.8742V14.0569Z" fill="#80848D"/>
</svg>
