<svg width="20" height="17" viewBox="0 0 20 17" fill="none" xmlns="http://www.w3.org/2000/svg">
<path d="M10.0003 8.00052C8.93118 8.00052 7.92721 7.58382 7.17195 6.82857C6.41669 6.07331 6 5.06804 6 4.00026C6 2.93248 6.41669 1.92721 7.17195 1.17195C7.92721 0.416694 8.93248 0 10.0003 0C11.068 0 12.0733 0.416694 12.8286 1.17195C13.5838 1.92721 14.0005 2.93248 14.0005 4.00026C14.0005 5.06804 13.5838 6.07331 12.8286 6.82857C12.0733 7.58513 11.0693 8.00052 10.0003 8.00052ZM10.0003 0.626343C8.13946 0.626343 6.62504 2.14076 6.62504 4.00156C6.62504 5.86236 8.13946 7.37548 10.0003 7.37548C11.8611 7.37548 13.3755 5.86106 13.3755 4.00026C13.3755 2.13946 11.8611 0.626343 10.0003 0.626343Z" fill="#80848D"/>
<path d="M11.3419 4.23159L11.3393 4.22768C11.2312 4.06882 11.0646 3.9373 10.8419 3.83443C10.6921 3.76671 10.4174 3.68728 10.0254 3.59873C9.55926 3.49326 9.39258 3.40992 9.33529 3.35783C9.25716 3.28882 9.21939 3.20157 9.21939 3.09349C9.21939 2.96718 9.27539 2.8604 9.38998 2.76795C9.50847 2.67289 9.7051 2.62471 9.97726 2.62471C10.2364 2.62471 10.433 2.6781 10.5606 2.78358C10.6505 2.8565 10.7143 2.95807 10.752 3.08307C10.7911 3.2159 10.9096 3.30575 11.0463 3.30575C11.0541 3.30575 11.062 3.30575 11.0698 3.30444H11.0724C11.1427 3.29923 11.2091 3.27189 11.2612 3.22501C11.3497 3.14297 11.3823 3.02448 11.351 2.91379C11.3198 2.80181 11.2703 2.69503 11.2065 2.59737C11.088 2.41767 10.9174 2.27964 10.6987 2.18718C10.4851 2.09733 10.2364 2.05176 9.95772 2.05176C9.7051 2.05176 9.47201 2.09473 9.26367 2.18067C9.05141 2.26922 8.88604 2.40074 8.77405 2.57132C8.66207 2.74191 8.60607 2.92812 8.60607 3.12605C8.60607 3.30575 8.65295 3.47112 8.7454 3.61827C8.83656 3.76281 8.97719 3.88651 9.1608 3.98287C9.29883 4.0571 9.54103 4.13523 9.87829 4.21596C10.2064 4.29409 10.42 4.35269 10.5151 4.39045C10.6531 4.44254 10.7507 4.50634 10.808 4.57927C10.8627 4.65088 10.8914 4.73553 10.8914 4.83058C10.8914 4.92564 10.8614 5.01549 10.8028 5.09623C10.7429 5.17826 10.6492 5.24467 10.5242 5.29416C10.3939 5.34494 10.239 5.37098 10.0671 5.37098C9.87308 5.37098 9.69599 5.33713 9.54103 5.26941C9.38998 5.20431 9.27799 5.11836 9.20898 5.01419C9.1647 4.94908 9.13085 4.87095 9.1061 4.7824C9.06834 4.64698 8.94594 4.55192 8.80661 4.55192C8.79749 4.55192 8.78838 4.55192 8.77926 4.55322C8.68941 4.56104 8.60737 4.60791 8.55529 4.68083C8.5019 4.75376 8.48367 4.84751 8.5045 4.93606C8.53836 5.0819 8.59826 5.21863 8.6803 5.34364C8.81442 5.54678 9.00063 5.70173 9.23502 5.8033C9.4655 5.90227 9.75328 5.95305 10.0892 5.95305C10.3575 5.95305 10.6036 5.90227 10.8198 5.80461C11.0385 5.70434 11.2104 5.5611 11.3276 5.3788C11.4461 5.19649 11.506 4.99987 11.506 4.79282C11.506 4.58057 11.45 4.39306 11.3419 4.23159Z" fill="#80848D"/>
<path d="M9.99996 6.44661C9.82678 6.44661 9.68744 6.30727 9.68744 6.13409V5.9049C9.68744 5.73172 9.82678 5.59238 9.99996 5.59238C10.1732 5.59238 10.3125 5.73172 10.3125 5.9049V6.13409C10.3125 6.30597 10.1732 6.44661 9.99996 6.44661ZM9.99996 2.40858C9.82678 2.40858 9.68744 2.26925 9.68744 2.09606V1.86818C9.68744 1.695 9.82678 1.55566 9.99996 1.55566C10.1732 1.55566 10.3125 1.695 10.3125 1.86818V2.09606C10.3125 2.26795 10.1732 2.40858 9.99996 2.40858ZM14.4469 9.84526H5.55306C5.11553 9.84526 4.69233 9.75672 4.29126 9.58092L2.75731 8.9077C2.59975 8.83869 2.52682 8.65378 2.59714 8.49622C2.66616 8.33866 2.85106 8.26573 3.00863 8.33605L4.54258 9.00927C4.86291 9.14991 5.20278 9.22153 5.55306 9.22153H14.4469C14.7972 9.22153 15.137 9.14991 15.4573 9.00927L16.9913 8.33605C17.1489 8.26704 17.3338 8.33866 17.4028 8.49622C17.4718 8.65378 17.4002 8.83869 17.2426 8.9077L15.7087 9.58092C15.3089 9.75672 14.8844 9.84526 14.4469 9.84526Z" fill="#80848D"/>
<path d="M17.4971 14.9433H2.50529C1.83467 14.9433 1.28906 14.3977 1.28906 13.7284V10.8037C1.28906 10.4326 1.41147 10.0654 1.63414 9.76852L4.50932 5.93103C4.97289 5.3125 5.64481 4.88799 6.40137 4.73564C6.57065 4.70178 6.73603 4.81116 6.76989 4.98045C6.80374 5.14973 6.69436 5.3151 6.52508 5.34896C5.91827 5.47136 5.38047 5.81123 5.00936 6.30605L2.13417 10.1435C1.99223 10.3337 1.9141 10.568 1.9141 10.8037V13.7271C1.9141 14.0526 2.17844 14.317 2.50529 14.317H17.4971C17.8227 14.317 18.087 14.0526 18.087 13.7271V10.8037C18.087 10.5667 18.0089 10.3324 17.867 10.1435L14.9918 6.30605C14.6207 5.81123 14.0829 5.47136 13.4761 5.34896C13.3068 5.3151 13.1974 5.14973 13.2312 4.98045C13.2651 4.81116 13.4305 4.70178 13.5998 4.73564C14.3563 4.88799 15.0282 5.3125 15.4918 5.93103L18.367 9.76852C18.5897 10.0654 18.7121 10.4326 18.7121 10.8037V13.7271C18.7121 14.3977 18.1665 14.9433 17.4971 14.9433Z" fill="#80848D"/>
<path d="M12.368 13.1566H7.63331C7.30907 13.1566 7.01999 12.9391 6.93144 12.6266L6.73481 11.9391C6.67101 11.7164 6.71398 11.4833 6.85331 11.2984C6.99264 11.1135 7.20489 11.008 7.43668 11.008H12.5646C12.7964 11.008 13.0087 11.1135 13.148 11.2984C13.2873 11.4833 13.3303 11.7164 13.2665 11.9391L13.0699 12.6266C12.9813 12.9378 12.6922 13.1566 12.368 13.1566ZM7.43668 11.6331C7.3911 11.6331 7.36376 11.6591 7.35204 11.6747C7.34032 11.6904 7.32209 11.7229 7.33511 11.7672L7.53174 12.4547C7.54476 12.5003 7.58643 12.5316 7.63331 12.5316H12.368C12.4149 12.5316 12.4565 12.5003 12.4696 12.4547L12.6662 11.7672C12.6792 11.7229 12.661 11.6904 12.6493 11.6747C12.6375 11.6591 12.6102 11.6331 12.5646 11.6331H7.43668ZM16.4281 13.0381C16.4138 13.0381 16.3982 13.0381 16.3839 13.0368L15.2953 12.9821C14.8148 12.9587 14.4384 12.5628 14.4384 12.081C14.4384 11.5992 14.8148 11.2047 15.2953 11.1799L16.3839 11.1252C16.63 11.1135 16.8722 11.2034 17.0506 11.3726C17.229 11.5419 17.3306 11.7802 17.3306 12.0263V12.1344C17.3306 12.3805 17.229 12.6188 17.0506 12.7881C16.8839 12.9483 16.6586 13.0381 16.4281 13.0381ZM16.4295 11.7503H16.4151L15.3265 11.805C15.1794 11.8128 15.0635 11.9339 15.0635 12.081C15.0635 12.2282 15.1794 12.3506 15.3265 12.3571L16.4151 12.4118C16.492 12.4157 16.5649 12.3883 16.6196 12.3362C16.6756 12.2829 16.7055 12.2125 16.7055 12.1357V12.0276C16.7055 11.9508 16.6756 11.8792 16.6196 11.8271C16.5675 11.7776 16.5011 11.7503 16.4295 11.7503ZM3.57315 13.0381C3.34266 13.0381 3.11869 12.9483 2.95071 12.7894C2.77232 12.6201 2.67075 12.3818 2.67075 12.1357V12.0276C2.67075 11.7815 2.77232 11.5432 2.95071 11.3739C3.12911 11.2047 3.37131 11.1148 3.61742 11.1265L4.70603 11.1812C5.18653 11.2047 5.56286 11.6005 5.56286 12.0823C5.56286 12.5641 5.18653 12.9587 4.70603 12.9834L3.61742 13.0381H3.57315ZM3.57185 11.7503C3.50023 11.7503 3.43382 11.7776 3.38173 11.8271C3.32574 11.8805 3.29579 11.9508 3.29579 12.0276V12.1357C3.29579 12.2125 3.32574 12.2842 3.38173 12.3362C3.43772 12.3896 3.50934 12.4157 3.58617 12.4118L4.67478 12.3571C4.82193 12.3493 4.93782 12.2282 4.93782 12.081C4.93782 11.9339 4.82193 11.8115 4.67478 11.805L3.58617 11.7503H3.57185ZM4.29195 16.6868H3.65909C3.05619 16.6868 2.56527 16.1959 2.56527 15.593V14.6307C2.56527 14.4575 2.7046 14.3181 2.87779 14.3181H5.07194C5.24513 14.3181 5.38446 14.4575 5.38446 14.6307V15.593C5.38577 16.1972 4.89485 16.6868 4.29195 16.6868ZM3.19031 14.9432V15.593C3.19031 15.8521 3.39996 16.0617 3.65909 16.0617H4.29064C4.54977 16.0617 4.75942 15.8521 4.75942 15.593V14.9432H3.19031ZM16.3422 16.6868H15.7107C15.1078 16.6868 14.6168 16.1959 14.6168 15.593V14.6307C14.6168 14.4575 14.7562 14.3181 14.9294 14.3181H17.1235C17.2967 14.3181 17.436 14.4575 17.436 14.6307V15.593C17.436 16.1972 16.9451 16.6868 16.3422 16.6868ZM15.2406 14.9432V15.593C15.2406 15.8521 15.4502 16.0617 15.7094 16.0617H16.3409C16.6 16.0617 16.8097 15.8521 16.8097 15.593V14.9432H15.2406ZM2.4038 9.57434H0.651084C0.291686 9.57434 0 9.28266 0 8.92326V8.32036C0 7.96096 0.291686 7.66927 0.651084 7.66927H1.85819C2.10821 7.66927 2.33869 7.81511 2.44547 8.04039L2.85565 8.90112C2.92988 9.05608 2.86477 9.24099 2.71111 9.31651C2.68637 9.46236 2.55876 9.57434 2.4038 9.57434ZM0.651084 8.29431C0.63676 8.29431 0.625041 8.30603 0.625041 8.32036V8.92326C0.625041 8.93758 0.63676 8.9493 0.651084 8.9493H2.18764L1.88163 8.30864C1.87773 8.29952 1.86861 8.29431 1.85819 8.29431H0.651084ZM19.3502 9.57434H17.5975C17.4425 9.57434 17.3149 9.46236 17.2889 9.31521C17.1352 9.23969 17.0701 9.05478 17.1443 8.89982L17.5545 8.03909C17.6626 7.81381 17.8931 7.66797 18.1418 7.66797H19.3489C19.7083 7.66797 20 7.95965 20 8.31905V8.92196C20.0013 9.28266 19.7096 9.57434 19.3502 9.57434ZM17.8137 8.9493H19.3502C19.3645 8.9493 19.3763 8.93758 19.3763 8.92326V8.32036C19.3763 8.30603 19.3645 8.29431 19.3502 8.29431H18.1431C18.1327 8.29431 18.1236 8.29952 18.1197 8.30864L17.8137 8.9493Z" fill="#80848D"/>
</svg>
