<svg width="20" height="12" viewBox="0 0 20 12" fill="none" xmlns="http://www.w3.org/2000/svg">
<path d="M17.3703 6.61318C17.7799 6.33482 18.0895 5.93248 18.2536 5.46523C18.4177 4.99797 18.4276 4.49042 18.282 4.01708C18.1364 3.54374 17.8429 3.12956 17.4445 2.83533C17.0462 2.5411 16.564 2.38234 16.0687 2.38234C15.5735 2.38234 15.0913 2.5411 14.693 2.83533C14.2946 3.12956 14.0011 3.54374 13.8555 4.01708C13.7099 4.49042 13.7198 4.99797 13.8839 5.46523C14.048 5.93248 14.3576 6.33482 14.7672 6.61318C14.3456 6.76075 13.9523 6.97954 13.6047 7.26005C13.0078 6.73931 12.3052 6.35392 11.5453 6.13036C12.1615 5.78816 12.6466 5.25101 12.9244 4.60324C13.2023 3.95547 13.2571 3.23378 13.0804 2.55146C12.9036 1.86915 12.5053 1.26485 11.9479 0.833447C11.3905 0.402045 10.7056 0.167969 10.0008 0.167969C9.29594 0.167969 8.61106 0.402045 8.05367 0.833447C7.49628 1.26485 7.09793 1.86915 6.92118 2.55146C6.74443 3.23378 6.79928 3.95547 7.07712 4.60324C7.35496 5.25101 7.84006 5.78816 8.45625 6.13036C7.69632 6.35392 6.99378 6.73931 6.39687 7.26005C6.04921 6.97954 5.65601 6.76075 5.23438 6.61318C5.64445 6.33477 5.95445 5.9322 6.11884 5.46461C6.28323 4.99701 6.29335 4.48902 6.14772 4.01524C6.00209 3.54146 5.70838 3.12687 5.30972 2.83234C4.91106 2.53782 4.42847 2.37888 3.93281 2.37888C3.43716 2.37888 2.95456 2.53782 2.55591 2.83234C2.15725 3.12687 1.86354 3.54146 1.7179 4.01524C1.57227 4.48902 1.58239 4.99701 1.74679 5.46461C1.91118 5.9322 2.22117 6.33477 2.63125 6.61318C1.86375 6.88332 1.19873 7.3845 0.72758 8.04786C0.256428 8.71122 0.00225955 9.50421 0 10.3179C0 10.4007 0.032924 10.4802 0.0915291 10.5388C0.150134 10.5974 0.22962 10.6304 0.3125 10.6304C0.39538 10.6304 0.474866 10.5974 0.533471 10.5388C0.592076 10.4802 0.625 10.4007 0.625 10.3179C0.626194 9.70114 0.799777 9.09704 1.12615 8.57375C1.45252 8.05047 1.91869 7.62885 2.47201 7.35649C3.02534 7.08414 3.64379 6.97189 4.25753 7.03244C4.87127 7.09298 5.45587 7.32389 5.94531 7.69911C5.01743 8.7096 4.50322 10.0319 4.50469 11.4038C4.50469 11.4867 4.53761 11.5662 4.59622 11.6248C4.65482 11.6834 4.73431 11.7163 4.81719 11.7163C4.90007 11.7163 4.97955 11.6834 5.03816 11.6248C5.09676 11.5662 5.12969 11.4867 5.12969 11.4038C5.15255 10.1274 5.67564 8.91106 6.58637 8.0165C7.49709 7.12194 8.72264 6.62072 9.99922 6.62072C11.2758 6.62072 12.5013 7.12194 13.4121 8.0165C14.3228 8.91106 14.8459 10.1274 14.8688 11.4038C14.8688 11.4867 14.9017 11.5662 14.9603 11.6248C15.0189 11.6834 15.0984 11.7163 15.1813 11.7163C15.2641 11.7163 15.3436 11.6834 15.4022 11.6248C15.4608 11.5662 15.4938 11.4867 15.4938 11.4038C15.4952 10.0319 14.981 8.7096 14.0531 7.69911C14.5426 7.32344 15.1273 7.09214 15.7413 7.03135C16.3553 6.97057 16.974 7.08272 17.5276 7.35513C18.0812 7.62754 18.5476 8.04935 18.8741 8.5729C19.2005 9.09645 19.374 9.70087 19.375 10.3179C19.375 10.4007 19.4079 10.4802 19.4665 10.5388C19.5251 10.5974 19.6046 10.6304 19.6875 10.6304C19.7704 10.6304 19.8499 10.5974 19.9085 10.5388C19.9671 10.4802 20 10.4007 20 10.3179C19.9979 9.5044 19.7439 8.71155 19.2731 8.04821C18.8022 7.38487 18.1375 6.88358 17.3703 6.61318ZM2.24062 4.69287C2.24155 4.35838 2.34158 4.03168 2.52809 3.75402C2.71459 3.47636 2.97919 3.26019 3.28848 3.13283C3.59777 3.00547 3.93786 2.97263 4.26581 3.03845C4.59375 3.10428 4.89483 3.26581 5.13102 3.50265C5.36721 3.73949 5.52791 4.04102 5.59282 4.36914C5.65773 4.69727 5.62395 5.03727 5.49574 5.3462C5.36752 5.65514 5.15063 5.91914 4.87245 6.10488C4.59428 6.29061 4.2673 6.38974 3.93281 6.38974C3.71025 6.38953 3.48992 6.34547 3.2844 6.26006C3.07888 6.17466 2.89221 6.04959 2.73505 5.892C2.5779 5.73441 2.45334 5.54739 2.36851 5.34163C2.28367 5.13588 2.24021 4.91542 2.24062 4.69287ZM7.44375 3.34599C7.44499 2.84068 7.59596 2.34707 7.87759 1.92752C8.15923 1.50797 8.55889 1.1813 9.02609 0.988784C9.49329 0.796266 10.0071 0.746534 10.5025 0.845872C10.998 0.945211 11.4529 1.18916 11.8097 1.54691C12.1666 1.90465 12.4095 2.36014 12.5076 2.85583C12.6057 3.35153 12.5547 3.86518 12.3611 4.33191C12.1674 4.79864 11.8398 5.19751 11.4195 5.47811C10.9993 5.75872 10.5053 5.90849 10 5.90849C9.32229 5.90766 8.67258 5.63808 8.19337 5.15887C7.71416 4.67966 7.44458 4.02995 7.44375 3.35224V3.34599ZM14.375 4.69287C14.375 4.35818 14.4742 4.03101 14.6602 3.75274C14.8461 3.47446 15.1104 3.25757 15.4196 3.12949C15.7288 3.00141 16.0691 2.9679 16.3973 3.03319C16.7256 3.09849 17.0271 3.25965 17.2637 3.49631C17.5004 3.73296 17.6616 4.03448 17.7269 4.36274C17.7922 4.69099 17.7586 5.03123 17.6306 5.34044C17.5025 5.64964 17.2856 5.91393 17.0073 6.09987C16.729 6.28581 16.4019 6.38505 16.0672 6.38505C15.6185 6.38464 15.1883 6.20622 14.8711 5.88897C14.5538 5.57171 14.3754 5.14153 14.375 4.69287Z" fill="#80848D"/>
</svg>
