<svg width="14" height="17" viewBox="0 0 14 17" fill="none" xmlns="http://www.w3.org/2000/svg">
<path fill-rule="evenodd" clip-rule="evenodd" d="M7.00276 17C6.57441 17.0008 6.15254 16.8994 5.77492 16.7049C5.3973 16.5104 5.07571 16.2288 4.83893 15.8854C4.78892 15.8037 4.77228 15.707 4.79223 15.6141C4.81219 15.5212 4.86732 15.4387 4.94693 15.3827C5.0141 15.3356 5.09517 15.3102 5.17834 15.3104C5.24009 15.3101 5.30105 15.3238 5.35634 15.3502C5.41164 15.3766 5.45974 15.4151 5.49678 15.4627C5.66205 15.7003 5.88568 15.8951 6.14788 16.0298C6.41008 16.1645 6.70276 16.2349 6.99999 16.2348C7.29456 16.2348 7.58466 16.1654 7.84496 16.0327C8.10526 15.9001 8.32785 15.7081 8.49331 15.4737L8.5028 15.4638L8.51151 15.4478C8.54809 15.3981 8.59654 15.3576 8.65277 15.3297C8.70901 15.3017 8.7714 15.2872 8.83469 15.2872C8.91259 15.2872 8.98873 15.3095 9.05345 15.3512L9.07402 15.3641C9.15089 15.4202 9.20379 15.5014 9.22276 15.5924C9.23347 15.642 9.23378 15.6932 9.22366 15.7429C9.21353 15.7927 9.19319 15.8399 9.16382 15.882C8.97183 16.1618 8.72288 16.4013 8.43199 16.586C8.00832 16.8563 7.51115 17.0003 7.00276 17ZM7.00039 14.1742C5.91412 14.1742 4.40933 14.0497 2.649 13.8142C1.90716 13.7155 1.22938 13.3567 0.745859 12.8065C0.26391 12.2569 -6.2969e-07 11.5608 0.000979282 10.8418C0.000837186 10.2879 0.156088 9.74412 0.45036 9.26794C0.524729 9.14769 0.597516 9.03429 0.667929 8.92546L0.682169 8.90338C0.852269 8.63701 1.01208 8.38928 1.15172 8.12062C1.36811 7.70432 1.46819 7.35537 1.46819 7.0224V5.32255C1.46819 2.38787 3.94967 0.000396186 7.00039 1.5651e-05C7.72723 -0.00168568 8.44721 0.135336 9.11862 0.403146C9.79004 0.670956 10.3996 1.06423 10.9119 1.56021C11.4274 2.0532 11.8361 2.63961 12.1145 3.28554C12.3929 3.93146 12.5354 4.62408 12.5338 5.32331V7.02354C12.5338 7.35461 12.6342 7.70356 12.8502 8.12139C12.9899 8.39004 13.1493 8.63891 13.3186 8.90262C13.4084 9.0419 13.482 9.15796 13.5516 9.26984C13.846 9.74566 14.0012 10.2892 14.0006 10.843C14.0018 11.5622 13.738 12.2586 13.2561 12.8084C12.7726 13.3586 12.0948 13.7174 11.353 13.8161C10.1255 13.9793 8.37266 14.1742 7.00039 14.1742ZM7.00039 0.761465C5.74333 0.762875 4.53818 1.24387 3.64931 2.09893C2.76043 2.954 2.26042 4.11331 2.25896 5.32255V7.02164C2.25896 7.47828 2.13197 7.93492 1.85863 8.45968C1.69644 8.7603 1.51605 9.06093 1.32499 9.34975L1.29651 9.39427C1.23756 9.48598 1.1806 9.57503 1.12957 9.6576C0.907618 10.0154 0.790726 10.4244 0.79135 10.8411C0.79135 11.9758 1.61811 12.9097 2.7566 13.0611C3.9647 13.2217 5.68152 13.4131 7.00039 13.4131C8.31925 13.4131 10.0361 13.2228 11.2438 13.0611C12.3827 12.9089 13.209 11.9751 13.209 10.8411C13.2093 10.4247 13.0928 10.016 12.872 9.65798L12.6742 9.34975C12.4831 9.06131 12.3035 8.76144 12.1394 8.45816C11.8668 7.93112 11.7402 7.47486 11.7402 7.02164V5.32255C11.7388 4.11357 11.239 2.95449 10.3504 2.09947C9.46191 1.24445 8.25717 0.763278 7.00039 0.761465Z" fill="#80848D"/>
</svg>
