<svg width="20" height="16" viewBox="0 0 20 16" fill="none" xmlns="http://www.w3.org/2000/svg">
<path d="M19.235 5.74786L18.7991 5.28632L17.2692 1.16239C17.0085 0.465812 16.3419 0.0042735 15.5983 0H4.67094C3.92735 0 3.26068 0.465812 3 1.16239L1.49145 5.23504L0.863248 5.81624C0.316239 6.28205 0 6.96581 0 7.68376V13.6923C0.0042735 14.6752 0.803419 15.4701 1.78632 15.4701H2.91453C3.89744 15.4701 4.69658 14.6752 4.70085 13.6923V12.8205H15.2991V13.6923C15.3034 14.6752 16.1026 15.4701 17.0855 15.4701H18.2137C19.1966 15.4701 19.9957 14.6752 20 13.6923V7.52564C19.9957 6.8547 19.7222 6.21368 19.235 5.74786ZM3.80342 1.45299C3.94017 1.08974 4.28633 0.854701 4.67094 0.854701H15.6026C15.9872 0.854701 16.3333 1.09402 16.4701 1.45299L17.8034 5.04274H16.8077C16.5726 3.44017 15.0812 2.33333 13.4786 2.57265C12.2009 2.76068 11.1966 3.76496 11.0085 5.04274H2.47009L3.80342 1.45299ZM15.9359 5.04274H11.8718C12.1068 3.9188 13.2094 3.20085 14.3333 3.4359C15.1368 3.60684 15.765 4.23504 15.9359 5.04274ZM3.84615 13.6923C3.84188 14.2051 3.42735 14.6154 2.91453 14.6154H1.78632C1.2735 14.6154 0.858974 14.2051 0.854701 13.6923V12.5727C1.11111 12.7393 1.44872 12.8205 1.78632 12.8205H3.84615V13.6923ZM19.1453 13.6923C19.141 14.2051 18.7265 14.6154 18.2137 14.6154H17.0855C16.5726 14.6154 16.1581 14.2009 16.1538 13.6923V12.8205H18.2137C18.5513 12.8205 18.8889 12.7393 19.1453 12.5727V13.6923ZM18.2137 11.9658H1.78632C1.27778 11.9701 0.858974 11.5641 0.854701 11.0513V7.68376C0.854701 7.21368 1.0641 6.76496 1.42308 6.46154L1.44017 6.44444L2.02137 5.89744H18.2051L18.6154 6.33761C18.6197 6.34615 18.6325 6.35043 18.6368 6.35897C18.9573 6.66239 19.141 7.08547 19.141 7.52564V11.0513H19.1453C19.141 11.5598 18.7222 11.9701 18.2137 11.9658Z" fill="#80848D"/>
<path d="M5.64127 7.60645H2.43614C2.2011 7.60645 2.00879 7.79875 2.00879 8.0338V10.256C2.00879 10.4911 2.2011 10.6834 2.43614 10.6834H5.64127C5.87631 10.6834 6.06862 10.4911 6.06862 10.256V8.0338C6.06862 7.79875 5.87631 7.60645 5.64127 7.60645ZM5.21392 9.82867H2.86349V8.46115H5.21392V9.82867ZM17.5643 7.60645H14.3592C14.1242 7.60645 13.9319 7.79875 13.9319 8.0338V10.256C13.9319 10.4911 14.1242 10.6834 14.3592 10.6834H17.5643C17.7994 10.6834 17.9917 10.4911 17.9917 10.256V8.0338C17.9917 7.79875 17.7994 7.60645 17.5643 7.60645ZM17.137 9.82867H14.7866V8.46115H17.137V9.82867ZM12.0643 9.40132H7.93614C7.7011 9.40132 7.50879 9.59362 7.50879 9.82867C7.50879 10.0637 7.7011 10.256 7.93614 10.256H12.0643C12.2994 10.256 12.4917 10.0637 12.4917 9.82867C12.4917 9.59362 12.2994 9.40132 12.0643 9.40132ZM12.0643 8.07653H7.93614C7.7011 8.07653 7.50879 8.26884 7.50879 8.50388C7.50879 8.73892 7.7011 8.93123 7.93614 8.93123H12.0643C12.2994 8.93123 12.4917 8.73892 12.4917 8.50388C12.4917 8.26884 12.2994 8.07653 12.0643 8.07653Z" fill="#80848D"/>
</svg>
