<svg width="20" height="20" viewBox="0 0 20 20" fill="none" xmlns="http://www.w3.org/2000/svg">
<path fill-rule="evenodd" clip-rule="evenodd" d="M15.811 9.37402C15.5626 9.51048 15.2835 9.58147 15.0001 9.58029C14.7232 9.57567 14.452 9.50189 14.2109 9.36566C13.9699 9.22943 13.7668 9.03507 13.6201 8.80029C12.7782 7.69099 12.2405 6.38115 12.0601 5.00029C12.0601 4.00024 12.5184 3.24351 13.064 2.77014C13.6097 2.29677 14.3077 2.03615 15.0301 2.03615C15.7524 2.03615 16.4505 2.29677 16.9961 2.77014C17.5417 3.24351 18.0001 4.00024 18.0001 5.00029C17.8174 6.38405 17.2724 7.69498 16.4201 8.80029C16.269 9.04012 16.0594 9.23756 15.811 9.37402ZM15.8566 2.9346C15.5848 2.82348 15.2936 2.76762 15.0001 2.77029C14.4183 2.78082 13.8644 3.02137 13.4596 3.4393C13.0548 3.85723 12.8401 4.14376 12.8401 5.00029C13.0426 6.22423 13.5327 7.38263 14.2701 8.38029C14.3525 8.50827 14.4657 8.61351 14.5994 8.6864C14.733 8.75928 14.8828 8.79747 15.0351 8.79747C15.1873 8.79747 15.3371 8.75928 15.4707 8.6864C15.6044 8.61351 15.7176 8.50827 15.8001 8.38029C16.5374 7.38263 17.0275 6.22423 17.2301 5.00029C17.2301 4.5403 17.185 4.43176 17.0913 4.20578C17.0832 4.1861 17.0746 4.16553 17.0657 4.14376C16.9546 3.872 16.7905 3.6251 16.5829 3.4175C16.3752 3.20989 16.1284 3.04573 15.8566 2.9346ZM15.0003 5.3504C15.0803 5.35826 15.1608 5.3412 15.2307 5.30156C15.3007 5.26193 15.3567 5.20165 15.391 5.12897C15.4254 5.05629 15.4364 4.97477 15.4227 4.89557C15.4089 4.81636 15.3711 4.74334 15.3142 4.68649C15.2574 4.62965 15.1843 4.59176 15.1051 4.57801C15.0259 4.56426 14.9444 4.57533 14.8717 4.60969C14.7991 4.64405 14.7388 4.70003 14.6991 4.76997C14.6595 4.83991 14.6424 4.92039 14.6503 5.0004C14.6572 5.09093 14.6963 5.176 14.7605 5.2402C14.8247 5.3044 14.9098 5.34349 15.0003 5.3504ZM17.6101 10.4004C17.5593 10.4004 17.5091 10.4105 17.4623 10.4302C17.4156 10.45 17.3732 10.4788 17.3378 10.5152C17.3024 10.5515 17.2746 10.5946 17.2561 10.6419C17.2376 10.6892 17.2288 10.7396 17.2301 10.7904V13.8504C17.2289 14.0169 17.1816 14.1799 17.0933 14.3211C17.005 14.4624 16.8793 14.5764 16.7301 14.6504L13.0001 16.5904C12.877 16.656 12.7396 16.6904 12.6001 16.6904C12.4606 16.6904 12.3232 16.656 12.2001 16.5904L8.2001 14.5904C7.96785 14.4719 7.71083 14.4101 7.4501 14.4101C7.18936 14.4101 6.93234 14.4719 6.7001 14.5904L4.0701 16.0004C3.94861 16.0596 3.81524 16.0904 3.6801 16.0904C3.5117 16.0882 3.3466 16.0434 3.2001 15.9604C3.06837 15.8797 2.95962 15.7665 2.88432 15.6317C2.80901 15.4968 2.76967 15.3448 2.7701 15.1904V9.00038C2.77274 8.83285 2.8206 8.66914 2.90861 8.52656C2.99662 8.38398 3.12152 8.26783 3.2701 8.19038L7.0001 6.25038C7.12223 6.18223 7.26026 6.14772 7.4001 6.15038C7.53932 6.15267 7.67617 6.18688 7.8001 6.25038L10.2501 7.46038C10.3058 7.47523 10.3644 7.47523 10.4201 7.46038C10.4909 7.4616 10.5606 7.44246 10.6209 7.40523C10.6812 7.368 10.7295 7.31426 10.7601 7.25038C10.784 7.20527 10.7986 7.15579 10.803 7.10492C10.8074 7.05404 10.8014 7.0028 10.7856 6.95426C10.7697 6.90573 10.7442 6.86088 10.7106 6.82242C10.677 6.78395 10.636 6.75265 10.5901 6.73038L8.1701 5.56038C7.9381 5.44124 7.6809 5.37952 7.4201 5.38038C7.16058 5.38074 6.9044 5.4388 6.6701 5.55038L2.9201 7.49038C2.64079 7.63075 2.4065 7.84668 2.24385 8.11363C2.08121 8.38057 1.99676 8.68781 2.0001 9.00038V15.1504C2.0001 15.5959 2.17709 16.0233 2.49216 16.3383C2.80722 16.6534 3.23453 16.8304 3.6801 16.8304C3.94076 16.8301 4.1977 16.7684 4.4301 16.6504L7.0001 15.2804C7.12503 15.2196 7.26126 15.1856 7.4001 15.1804C7.53932 15.1827 7.67617 15.2169 7.8001 15.2804L11.8001 17.2804C12.0323 17.3989 12.2894 17.4607 12.5501 17.4607C12.8108 17.4607 13.0679 17.3989 13.3001 17.2804L17.0501 15.3504C17.3279 15.2108 17.5611 14.9964 17.7237 14.7314C17.8862 14.4664 17.9716 14.1613 17.9701 13.8504V10.7904C17.9728 10.6913 17.9367 10.595 17.8695 10.5221C17.8022 10.4492 17.7091 10.4056 17.6101 10.4004ZM7 8.50035V12.2204C7 12.3238 7.04109 12.423 7.11423 12.4961C7.18737 12.5693 7.28657 12.6104 7.39 12.6104C7.49343 12.6104 7.59263 12.5693 7.66577 12.4961C7.73891 12.423 7.78 12.3238 7.78 12.2204V8.50035C7.78 8.39692 7.73891 8.29772 7.66577 8.22458C7.59263 8.15144 7.49343 8.11035 7.39 8.11035C7.28657 8.11035 7.18737 8.15144 7.11423 8.22458C7.04109 8.29772 7 8.39692 7 8.50035ZM12.1899 14.3404V10.7904C12.1899 10.687 12.231 10.5878 12.3042 10.5146C12.3773 10.4415 12.4765 10.4004 12.5799 10.4004C12.6834 10.4004 12.7826 10.4415 12.8557 10.5146C12.9289 10.5878 12.9699 10.687 12.9699 10.7904V14.3404C12.9699 14.4438 12.9289 14.543 12.8557 14.6162C12.7826 14.6893 12.6834 14.7304 12.5799 14.7304C12.4765 14.7304 12.3773 14.6893 12.3042 14.6162C12.231 14.543 12.1899 14.4438 12.1899 14.3404Z" fill="#80848D"/>
</svg>
