<svg width="19" height="18" viewBox="0 0 19 18" fill="none" xmlns="http://www.w3.org/2000/svg">
<path d="M14.734 8.14941C13.7973 8.15042 12.8994 8.52291 12.2371 9.18517C11.5748 9.84744 11.2022 10.7454 11.2012 11.682C11.2012 13.0807 12.9614 15.9948 14.0107 17.6075C14.0891 17.7279 14.1962 17.8269 14.3225 17.8954C14.4488 17.9639 14.5901 17.9998 14.7338 17.9998C14.8775 17.9998 15.0189 17.9639 15.1451 17.8954C15.2714 17.8269 15.3786 17.7279 15.4569 17.6075C16.5062 15.9949 18.2664 13.0808 18.2664 11.682C18.2654 10.7455 17.8929 9.84755 17.2307 9.18529C16.5684 8.52302 15.6705 8.15049 14.734 8.14941ZM14.9579 17.2826C14.9336 17.3199 14.9004 17.3506 14.8613 17.3718C14.8222 17.393 14.7784 17.4042 14.7339 17.4042C14.6894 17.4042 14.6456 17.393 14.6065 17.3718C14.5674 17.3506 14.5342 17.3199 14.51 17.2826C12.8111 14.6716 11.7967 12.5779 11.7967 11.6819C11.7994 10.9046 12.11 10.1602 12.6605 9.61154C13.2111 9.0629 13.9566 8.75484 14.7339 8.75484C15.5111 8.75484 16.2566 9.0629 16.8072 9.61154C17.3577 10.1602 17.6683 10.9046 17.671 11.6819C17.6709 12.578 16.6566 14.6718 14.9577 17.2827L14.9579 17.2826Z" fill="#80848D"/>
<path d="M14.7338 10.1816C14.4277 10.1816 14.1285 10.2724 13.874 10.4424C13.6195 10.6124 13.4212 10.8541 13.304 11.1369C13.1869 11.4197 13.1562 11.7309 13.216 12.0311C13.2757 12.3313 13.423 12.607 13.6395 12.8234C13.8559 13.0399 14.1317 13.1873 14.4318 13.247C14.732 13.3067 15.0432 13.276 15.326 13.1589C15.6088 13.0418 15.8505 12.8434 16.0205 12.5889C16.1906 12.3344 16.2813 12.0352 16.2813 11.7292C16.2809 11.3189 16.1177 10.9255 15.8276 10.6354C15.5374 10.3453 15.1441 10.1821 14.7338 10.1816ZM14.7338 12.6813C14.5455 12.6813 14.3614 12.6255 14.2048 12.5209C14.0482 12.4162 13.9262 12.2675 13.8541 12.0936C13.7821 11.9196 13.7632 11.7281 13.7999 11.5434C13.8367 11.3587 13.9273 11.1891 14.0605 11.0559C14.1937 10.9227 14.3633 10.8321 14.548 10.7953C14.7327 10.7586 14.9242 10.7774 15.0981 10.8495C15.2721 10.9216 15.4208 11.0436 15.5254 11.2002C15.6301 11.3568 15.6859 11.5408 15.6859 11.7292C15.6856 11.9816 15.5852 12.2236 15.4067 12.4021C15.2282 12.5806 14.9862 12.681 14.7338 12.6813ZM2.60403 8.93915C2.60403 8.86019 2.57266 8.78446 2.51683 8.72863C2.461 8.67279 2.38527 8.64143 2.30631 8.64143H1.59678C1.526 8.64134 1.45814 8.61319 1.40809 8.56314C1.35804 8.51309 1.32989 8.44523 1.32981 8.37445V5.32304C1.33023 5.28367 1.32285 5.24461 1.30808 5.20812C1.29331 5.17162 1.27145 5.13842 1.24376 5.11043C1.21607 5.08244 1.18311 5.06022 1.14678 5.04506C1.11045 5.02989 1.07147 5.02208 1.0321 5.02208C0.992729 5.02208 0.953751 5.02989 0.917419 5.04506C0.881087 5.06022 0.848124 5.08244 0.820437 5.11043C0.792749 5.13842 0.770889 5.17162 0.756119 5.20812C0.74135 5.24461 0.733965 5.28367 0.734393 5.32304V8.37445C0.73468 8.60308 0.825631 8.82227 0.987298 8.98393C1.14897 9.1456 1.36815 9.23655 1.59678 9.23684H2.30631C2.38526 9.23684 2.46098 9.20548 2.51682 9.14965C2.57265 9.09382 2.60402 9.0181 2.60403 8.93915ZM2.44573 7.19285C2.48482 7.19286 2.52354 7.18516 2.55966 7.1702C2.59578 7.15525 2.6286 7.13332 2.65625 7.10568C2.68389 7.07803 2.70582 7.04521 2.72079 7.00909C2.73575 6.97298 2.74345 6.93426 2.74345 6.89517V2.84398C2.74346 2.84099 2.74465 2.83813 2.74677 2.83602C2.74889 2.8339 2.75176 2.83272 2.75475 2.83272H4.59701C4.6 2.83272 4.60287 2.8339 4.60499 2.83602C4.60711 2.83813 4.60831 2.84099 4.60831 2.84398V8.27034C4.60917 8.34874 4.64091 8.42363 4.69665 8.47877C4.75238 8.53391 4.82762 8.56483 4.90602 8.56483C4.98442 8.56483 5.05966 8.53391 5.1154 8.47877C5.17114 8.42363 5.20288 8.34874 5.20373 8.27034V2.84398C5.20358 2.68312 5.13961 2.52889 5.02586 2.41515C4.91211 2.30141 4.75787 2.23744 4.59701 2.2373H2.75475C2.59389 2.23744 2.43966 2.30141 2.32591 2.41515C2.21216 2.52889 2.14819 2.68312 2.14804 2.84398V6.89517C2.14804 6.97412 2.1794 7.04984 2.23523 7.10566C2.29106 7.16149 2.36677 7.19285 2.44573 7.19285Z" fill="#80848D"/>
<path d="M4.20307 1.78213C4.24217 1.78213 4.28088 1.77443 4.31701 1.75947C4.35313 1.74451 4.38595 1.72258 4.4136 1.69494C4.44125 1.66729 4.46318 1.63447 4.47814 1.59834C4.4931 1.56222 4.5008 1.5235 4.50079 1.4844V0.634966C4.5008 0.63198 4.50199 0.62912 4.5041 0.627009C4.50621 0.624898 4.50907 0.623707 4.51206 0.623698H6.35435C6.35734 0.623717 6.36019 0.62491 6.3623 0.627019C6.36441 0.629128 6.3656 0.631983 6.36562 0.634966V7.62836C6.36562 8.12896 6.77188 8.56811 7.23496 8.56811H8.36797C8.40734 8.56853 8.4464 8.56115 8.4829 8.54638C8.51939 8.53161 8.55259 8.50975 8.58058 8.48206C8.60857 8.45438 8.63079 8.42141 8.64596 8.38508C8.66112 8.34875 8.66893 8.30977 8.66893 8.2704C8.66893 8.23103 8.66112 8.19205 8.64596 8.15572C8.63079 8.11939 8.60857 8.08642 8.58058 8.05874C8.55259 8.03105 8.51939 8.00919 8.4829 7.99442C8.4464 7.97965 8.40734 7.97227 8.36797 7.97269H7.23485C7.12453 7.97269 6.96107 7.82811 6.96107 7.62836V0.635001C6.96092 0.47412 6.89694 0.319874 6.78316 0.206128C6.66939 0.0923811 6.51513 0.0284318 6.35425 0.0283203L4.51195 0.0283203C4.3511 0.028469 4.19687 0.0924347 4.08313 0.206177C3.96939 0.319919 3.90542 0.474145 3.90527 0.635001V1.48444C3.90527 1.52354 3.91298 1.56226 3.92794 1.59838C3.94291 1.63451 3.96485 1.66733 3.9925 1.69497C4.02016 1.72262 4.05299 1.74454 4.08911 1.7595C4.12524 1.77445 4.16397 1.78214 4.20307 1.78213Z" fill="#80848D"/>
<path d="M8.34183 7.32274C8.42079 7.32273 8.49651 7.29136 8.55233 7.23553C8.60816 7.17969 8.63952 7.10397 8.63952 7.02502V2.89732L9.7414 2.0979C9.77088 2.07651 9.8057 2.06369 9.84201 2.06085C9.87831 2.05801 9.9147 2.06526 9.94715 2.08181C9.97959 2.09835 10.0068 2.12354 10.0259 2.1546C10.0449 2.18565 10.055 2.22136 10.055 2.25778V8.27053C10.0558 8.34893 10.0875 8.42382 10.1433 8.47896C10.199 8.53409 10.2743 8.56502 10.3527 8.56502C10.4311 8.56502 10.5063 8.53409 10.562 8.47896C10.6178 8.42382 10.6495 8.34893 10.6504 8.27053V2.25778C10.6504 2.11159 10.6099 1.96825 10.5336 1.84359C10.4572 1.71894 10.3479 1.61782 10.2176 1.5514C10.0874 1.48499 9.94135 1.45587 9.7956 1.46725C9.64986 1.47864 9.5101 1.53009 9.39176 1.61593L8.18054 2.49464C8.14892 2.51754 8.12213 2.54645 8.10169 2.57971C8.08125 2.61298 8.06758 2.64994 8.06145 2.6885C8.05004 2.72037 8.04418 2.75395 8.04411 2.7878V7.02502C8.04411 7.10398 8.07548 7.1797 8.13131 7.23554C8.18714 7.29137 8.26287 7.32274 8.34183 7.32274ZM12.084 16.6862H6.02638C5.78596 16.6862 5.5479 16.6389 5.32578 16.5469C5.10367 16.4549 4.90185 16.32 4.73185 16.15C4.56185 15.98 4.42699 15.7782 4.33499 15.5561C4.24299 15.334 4.19563 15.0959 4.19563 14.8555C4.19563 14.6151 4.24299 14.377 4.33499 14.1549C4.42699 13.9328 4.56185 13.731 4.73185 13.561C4.90185 13.391 5.10367 13.2561 5.32578 13.1641C5.5479 13.0721 5.78596 13.0247 6.02638 13.0247H8.42972C8.79722 13.0229 9.14904 12.8756 9.40825 12.6151C9.66746 12.3546 9.81297 12.002 9.81297 11.6345C9.81297 11.267 9.66746 10.9145 9.40825 10.654C9.14904 10.3934 8.79722 10.2462 8.42972 10.2443H1.92107C1.88171 10.2439 1.84265 10.2513 1.80615 10.266C1.76966 10.2808 1.73645 10.3027 1.70846 10.3304C1.68048 10.358 1.65826 10.391 1.64309 10.4273C1.62793 10.4637 1.62012 10.5026 1.62012 10.542C1.62012 10.5814 1.62793 10.6204 1.64309 10.6567C1.65826 10.693 1.68048 10.726 1.70846 10.7537C1.73645 10.7814 1.76966 10.8032 1.80615 10.818C1.84265 10.8328 1.88171 10.8402 1.92107 10.8397H8.42972C8.6396 10.8411 8.84041 10.9255 8.98833 11.0744C9.13625 11.2233 9.21926 11.4246 9.21926 11.6345C9.21926 11.8444 9.13625 12.0458 8.98833 12.1947C8.84041 12.3436 8.6396 12.4279 8.42972 12.4293H6.02638C5.38292 12.4293 4.76582 12.6849 4.31083 13.1399C3.85583 13.5949 3.60022 14.212 3.60022 14.8555C3.60022 15.4989 3.85583 16.116 4.31083 16.571C4.76582 17.026 5.38292 17.2816 6.02638 17.2816H12.084C12.1624 17.2808 12.2373 17.2491 12.2924 17.1933C12.3476 17.1376 12.3785 17.0623 12.3785 16.9839C12.3785 16.9055 12.3476 16.8303 12.2924 16.7746C12.2373 16.7188 12.1624 16.6871 12.084 16.6862Z" fill="#80848D"/>
</svg>
