<svg width="17" height="13" viewBox="0 0 17 13" fill="none" xmlns="http://www.w3.org/2000/svg">
<path d="M16.7083 1.40089C16.4958 1.14967 16.1982 0.996217 15.8702 0.968827L4.31968 0.00437228C3.9917 -0.0230179 3.67282 0.0789504 3.42157 0.29144C3.17134 0.503098 3.01811 0.7992 2.98986 1.12554L2.75748 3.30574H1.82957C1.1503 3.30574 0.597656 3.85838 0.597656 4.53765V11.7681C0.597656 12.4474 1.1503 13 1.82957 13H13.4204C14.0997 13 14.6523 12.4474 14.6523 11.7681V10.5952L15.0636 10.6295C15.0983 10.6324 15.1328 10.6338 15.167 10.6338C15.8003 10.6338 16.3401 10.1466 16.3938 9.50437L16.9954 2.29903C17.0228 1.97108 16.9208 1.65214 16.7083 1.40089ZM1.82957 3.94644H13.4204C13.7463 3.94644 14.0116 4.21166 14.0116 4.53765V5.19649H1.23836V4.53765C1.23836 4.21166 1.50358 3.94644 1.82957 3.94644ZM1.23836 5.8372H14.0116V7.16631H1.23836V5.8372ZM13.4204 12.3593H1.82957C1.50358 12.3593 1.23836 12.0941 1.23836 11.7681V7.80701H14.0116V11.7681C14.0116 12.0941 13.7463 12.3593 13.4204 12.3593ZM16.3569 2.24569L15.7553 9.45103C15.7281 9.7759 15.4417 10.0183 15.1169 9.99102L14.6523 9.95223V4.53765C14.6523 3.85838 14.0997 3.30574 13.4204 3.30574H3.40183L3.62733 1.19013C3.62759 1.18769 3.62781 1.18529 3.628 1.18282C3.65514 0.857953 3.9414 0.615638 4.26637 0.642868L15.8169 1.60732C15.9743 1.62046 16.1172 1.69411 16.2192 1.81469C16.3211 1.93527 16.3701 2.0883 16.3569 2.24569Z" fill="#80848D"/>
<path d="M12.6711 8.75977H9.58793C9.411 8.75977 9.26758 8.90319 9.26758 9.08012V11.0916C9.26758 11.2685 9.411 11.4119 9.58793 11.4119H12.6711C12.848 11.4119 12.9914 11.2685 12.9914 11.0916V9.08012C12.9914 8.90319 12.848 8.75977 12.6711 8.75977ZM12.3507 10.7712H9.90829V9.40047H12.3507V10.7712Z" fill="#80848D"/>
</svg>
