<svg width="20" height="20" viewBox="0 0 20 20" fill="none" xmlns="http://www.w3.org/2000/svg">
<path d="M16.0744 9.43848C14.4633 9.44014 13.1536 10.7601 13.1553 12.3812C13.1559 13.2668 13.5973 14.2763 14.4669 15.3821C15.0876 16.1714 15.7025 16.72 15.7284 16.7429C15.9302 16.922 16.234 16.9208 16.4344 16.7422C16.4603 16.7193 17.0743 16.1694 17.6936 15.3791C18.358 14.5309 18.9996 13.4489 18.9996 12.3756C18.9982 10.7576 17.6984 9.43848 16.0744 9.43848ZM16.0804 15.6095C15.3545 14.8724 14.2189 13.485 14.2179 12.3802C14.2169 11.3449 15.0504 10.5021 16.0754 10.5011C17.1062 10.5011 17.9356 11.3404 17.937 12.3766C17.938 13.4813 16.8046 14.8714 16.0804 15.6095Z" fill="#80848D"/>
<path d="M16.0778 11.5634C15.3745 11.5634 15.0103 12.4202 15.5146 12.9245C15.9146 13.3236 16.5964 13.1913 16.8147 12.6649C17.0308 12.1436 16.6455 11.5634 16.0778 11.5634ZM4.56917 9.30406C4.66644 9.39048 4.79204 9.43821 4.92216 9.43821C5.05227 9.43821 5.17787 9.39048 5.27514 9.30406C5.30104 9.28115 5.91569 8.73192 6.53565 7.94227C7.40399 6.8355 7.84431 5.8257 7.84431 4.93975C7.84431 3.31895 6.53333 2 4.92216 2C3.31099 2 2 3.31895 2 4.93975C2 5.8257 2.44032 6.8355 3.30866 7.94227C3.92862 8.73192 4.54327 9.28115 4.56917 9.30406ZM4.92216 3.0626C5.94757 3.0626 6.78171 3.90471 6.78171 4.93975C6.78171 6.04486 5.64672 7.43388 4.92182 8.17139C4.1966 7.43521 3.0626 6.04818 3.0626 4.93975C3.0626 3.90471 3.89674 3.0626 4.92216 3.0626Z" fill="#80848D"/>
<path d="M4.92195 5.7189C5.3621 5.7189 5.7189 5.3621 5.7189 4.92195C5.7189 4.48181 5.3621 4.125 4.92195 4.125C4.48181 4.125 4.125 4.48181 4.125 4.92195C4.125 5.3621 4.48181 5.7189 4.92195 5.7189Z" fill="#80848D"/>
<path d="M16.8801 18.204C16.8806 18.9303 15.9781 19.2809 15.4897 18.736H4.39085C3.07256 18.736 2 17.6634 2 16.3451C2 15.0268 3.07256 13.9543 4.39085 13.9543H9.72047C10.4437 13.9543 11.0321 13.3659 11.0321 12.6426C11.0321 11.9194 10.4437 11.331 9.72047 11.331H5.51622C5.02377 11.8744 4.12577 11.5278 4.1252 10.8003C4.12408 10.072 5.02101 9.72509 5.51622 10.2684H9.72047C11.0298 10.2684 12.0947 11.3333 12.0947 12.6426C12.0947 13.952 11.0298 15.0169 9.72047 15.0169H4.39085C3.65832 15.0169 3.0626 15.6126 3.0626 16.3451C3.0626 17.0777 3.65832 17.6734 4.39085 17.6734H15.4894C15.9837 17.1279 16.879 17.4805 16.8801 18.204Z" fill="#80848D"/>
</svg>
